<?xml version="1.0" encoding="iso-8859-1"?>
<!-- Generator: Adobe Illustrator 19.0.0, SVG Export Plug-In . SVG Version: 6.00 Build 0)  -->
<svg version="1.1" id="Capa_1" xmlns="http://www.w3.org/2000/svg" xmlns:xlink="http://www.w3.org/1999/xlink" x="0px" y="0px"
	 viewBox="0 0 511.965 511.965" style="enable-background:new 0 0 511.965 511.965;" xml:space="preserve">
<g>
	<g transform="translate(1 1)">
		<path style="fill:#6A1B9A;" d="M299.528,407.284c-3.261-6.416-2.171-14.186,2.731-19.456c-2.733-0.619-5.599-0.095-7.936,1.451
			c-6.575,5.15-8.883,14.067-5.632,21.76l8.533,20.651c3.722-2.469,7.258-5.207,10.581-8.192L299.528,407.284z M215.645,389.876
			c-2.358-1.57-5.25-2.124-8.022-1.536c4.959,5.237,6.087,13.028,2.817,19.456l-8.107,15.872c3.308,2.977,6.846,5.688,10.581,8.107
			l8.363-20.224C224.541,403.885,222.228,394.983,215.645,389.876z M254.984,280.991c0.004,0.747-0.082,1.492-0.256,2.219h0.512
			C255.065,282.483,254.979,281.738,254.984,280.991z M299.528,407.284c-3.261-6.416-2.171-14.186,2.731-19.456
			c-2.733-0.619-5.599-0.095-7.936,1.451c-6.575,5.15-8.883,14.067-5.632,21.76l8.533,20.651c3.722-2.469,7.258-5.207,10.581-8.192
			L299.528,407.284z M215.645,389.876c-2.358-1.57-5.25-2.124-8.022-1.536c4.959,5.237,6.087,13.028,2.817,19.456l-8.107,15.872
			c3.308,2.977,6.846,5.688,10.581,8.107l8.363-20.224C224.541,403.885,222.228,394.983,215.645,389.876z M254.984,280.991
			c0.004,0.747-0.082,1.492-0.256,2.219h0.512C255.065,282.483,254.979,281.738,254.984,280.991z M400.563,369.908
			c-2.467-10.828-6.101-21.357-10.837-31.403c-9.333-20.605-15.517-42.496-18.347-64.939c-1.069-9.694-1.155-19.472-0.256-29.184
			c0.171-1.792,0.341-3.584,0.511-5.376c3.157-31.317,8.021-63.829,2.816-94.976c-2.154-17.093-9.547-33.1-21.163-45.824
			c-1.59-1.656-3.271-3.223-5.035-4.693l0.598-0.683c1.521-2.926,3.788-5.399,6.571-7.168
			c14.677-10.325,44.629-10.325,44.629-10.325C380.509,48.543,341,47.433,323.506,48.287c0.256-0.853,0.513-1.792,0.768-2.56
			c1.274-3.958,3.145-7.699,5.547-11.093c14.763-20.565,44.629-20.565,44.629-20.565c-85.333-26.283-119.467,34.987-119.467,34.987
			S220.85-12.215,135.517,14.068c0,0,29.867,0,44.629,20.565c2.402,3.394,4.272,7.135,5.547,11.093
			c0.255,0.768,0.511,1.707,0.768,2.56c-17.493-0.853-57.002,0.256-76.544,27.051c0,0,29.952,0,44.629,10.325
			c2.783,1.769,5.049,4.242,6.571,7.168l0.598,0.683c-1.764,1.47-3.445,3.037-5.035,4.693
			c-11.616,12.724-19.008,28.731-21.163,45.824c-5.205,31.147-0.341,63.659,2.817,94.976c0.17,1.792,0.34,3.584,0.511,5.376
			c0.899,9.712,0.813,19.49-0.256,29.184c-2.829,22.443-9.014,44.333-18.347,64.939c-4.737,10.045-8.37,20.574-10.837,31.403
			c-0.92,4.836-1.121,9.782-0.597,14.677c2.389,27.136,24.405,51.797,46.507,65.792c17.348,10.765,36.524,18.256,56.575,22.101
			c28.436,5.803,57.751,5.803,86.188,0c20.051-3.846,39.227-11.337,56.575-22.101c22.102-13.995,44.117-38.656,46.507-65.792
			C401.683,379.69,401.482,374.744,400.563,369.908z M272.05,297.631c-8.386-0.023-15.512-6.136-16.811-14.421
			c-0.174-0.727-0.26-1.472-0.256-2.219c0.004,0.747-0.082,1.492-0.256,2.219c-0.854,5.5-4.341,10.237-9.34,12.685
			c-4.999,2.448-10.879,2.3-15.748-0.397c-5.397-3.04-8.752-8.739-8.789-14.933v-13.397c22.293,6.485,45.973,6.485,68.267,0v13.397
			c-0.038,6.194-3.392,11.893-8.789,14.933C277.794,296.899,274.946,297.633,272.05,297.631z M180.061,392.265
			c4.32-8.328,14.555-11.605,22.909-7.334c8.354,4.271,11.691,14.486,7.47,22.865l-8.107,15.872l-2.902,5.547
			c-10.217-5.393-19.66-12.138-28.075-20.053L180.061,392.265z M307.805,423.497l-8.277-16.213
			c-3.261-6.416-2.171-14.186,2.731-19.456c1.333-1.47,2.924-2.685,4.693-3.584c8.391-4.263,18.649-0.945,22.954,7.424l8.875,17.323
			c-8.415,7.916-17.858,14.661-28.075,20.053L307.805,423.497z M254.984,280.991c0.004,0.747-0.082,1.492-0.256,2.219h0.512
			C255.065,282.483,254.979,281.738,254.984,280.991z M215.645,389.876c-2.358-1.57-5.25-2.124-8.022-1.536
			c4.959,5.237,6.087,13.028,2.817,19.456l-8.107,15.872c3.308,2.977,6.846,5.688,10.581,8.107l8.363-20.224
			C224.541,403.885,222.228,394.983,215.645,389.876z M299.528,407.284c-3.261-6.416-2.171-14.186,2.731-19.456
			c-2.733-0.619-5.599-0.095-7.936,1.451c-6.575,5.15-8.883,14.067-5.632,21.76l8.533,20.651c3.722-2.469,7.258-5.207,10.581-8.192
			L299.528,407.284z M254.984,280.991c0.004,0.747-0.082,1.492-0.256,2.219h0.512C255.065,282.483,254.979,281.738,254.984,280.991z
			 M215.645,389.876c-2.358-1.57-5.25-2.124-8.022-1.536c4.959,5.237,6.087,13.028,2.817,19.456l-8.107,15.872
			c3.308,2.977,6.846,5.688,10.581,8.107l8.363-20.224C224.541,403.885,222.228,394.983,215.645,389.876z"/>
		<path style="fill:#9D27B0;" d="M254.984,280.991c0.004,0.747-0.082,1.492-0.256,2.219h0.512
			C255.065,282.483,254.979,281.738,254.984,280.991z M254.984,280.991c0.004,0.747-0.082,1.492-0.256,2.219h0.512
			C255.065,282.483,254.979,281.738,254.984,280.991z M365.234,375.711c-1.815-10.129-4.557-20.069-8.192-29.696
			c-7.127-19.806-11.798-40.411-13.908-61.355c-0.785-9.197-0.842-18.442-0.171-27.648c0.085-1.621,0.256-3.328,0.341-5.035
			c2.389-29.611,6.145-60.331,2.133-89.771c-1.293-17.642-8.235-34.399-19.797-47.787l0.427-0.683
			c3.925-9.984,17.236-13.995,27.221-15.531c-1.59-1.656-3.271-3.223-5.035-4.693l0.599-0.683c1.521-2.926,3.788-5.399,6.571-7.168
			c-13.775-10.751-31.17-15.764-48.554-13.995c1.849-10.729,8.18-20.163,17.407-25.941c1.274-3.958,3.145-7.699,5.547-11.093
			c-53.163-10.752-74.837,37.717-74.837,37.717s-21.675-48.469-74.837-37.717c2.402,3.394,4.272,7.135,5.547,11.093
			c9.228,5.778,15.558,15.212,17.407,25.941c-17.384-1.77-34.779,3.244-48.554,13.995c2.783,1.769,5.049,4.242,6.571,7.168
			l0.598,0.683c-1.764,1.47-3.445,3.037-5.035,4.693c9.984,1.536,23.296,5.547,27.221,15.531l0.427,0.683
			c-11.562,13.388-18.504,30.144-19.797,47.787c-4.011,29.44-0.256,60.16,2.133,89.771c0.084,1.707,0.255,3.413,0.341,5.035
			c0.671,9.206,0.614,18.451-0.171,27.648c-2.11,20.943-6.781,41.549-13.909,61.355c-3.635,9.627-6.377,19.567-8.192,29.696
			c-0.738,4.599-0.881,9.274-0.427,13.909c2.907,24.61,15.574,47.023,35.157,62.208c12.655,9.896,27.249,17.019,42.837,20.907
			c21.447,5.462,43.92,5.462,65.367,0c15.587-3.887,30.182-11.01,42.837-20.907c19.584-15.185,32.25-37.598,35.157-62.208
			C366.115,384.984,365.972,380.31,365.234,375.711z M221.277,411.551l-8.363,20.224c-3.735-2.419-7.274-5.129-10.581-8.107
			c-3.831-3.33-7.397-6.954-10.667-10.837l6.57-15.957c1.504-4.236,5.027-7.438,9.387-8.533c2.772-0.588,5.663-0.034,8.022,1.536
			C222.228,394.983,224.542,403.885,221.277,411.551z M267.869,307.359c-7.745-0.986-13.389-7.825-12.886-15.616
			c0.503,7.791-5.14,14.63-12.885,15.616c-6.426-0.532-11.612-5.47-12.459-11.861c-0.344-1.396-0.516-2.829-0.513-4.267l0-12.629
			c8.211,2.975,16.867,4.533,25.6,4.608h0.513c8.733-0.075,17.389-1.633,25.6-4.608l0,12.629c0.003,1.438-0.169,2.871-0.513,4.267
			C279.481,301.889,274.294,306.827,267.869,307.359L267.869,307.359z M297.224,431.689l-8.533-20.651
			c-3.251-7.693-0.943-16.61,5.632-21.76c2.337-1.545,5.203-2.069,7.936-1.451c4.389,1.021,7.958,4.204,9.472,8.448l6.741,16.384
			c-3.269,3.883-6.836,7.507-10.667,10.837C304.482,426.482,300.945,429.22,297.224,431.689z M254.984,280.991
			c0.004,0.747-0.082,1.492-0.256,2.219h0.512C255.065,282.483,254.979,281.738,254.984,280.991z M254.984,280.991
			c0.004,0.747-0.082,1.492-0.256,2.219h0.512C255.065,282.483,254.979,281.738,254.984,280.991z"/>
		<path style="fill:#2C2F38;" d="M336.904,244.724c-6.391,4.547-13.157,8.544-20.224,11.947
			c-8.822,4.392-18.054,7.907-27.563,10.496c-22.293,6.485-45.973,6.485-68.267,0c-9.509-2.589-18.741-6.104-27.563-10.496
			c-7.067-3.403-13.833-7.399-20.224-11.947c-2.439-1.829-3.717-4.821-3.352-7.847c0.365-3.027,2.316-5.629,5.12-6.827
			c2.804-1.198,6.033-0.808,8.472,1.021c10.316,7.099,21.538,12.781,33.365,16.896c12.284,4.483,25.239,6.849,38.315,6.997
			c13.103-0.149,26.087-2.515,38.4-6.997c11.796-4.126,22.988-9.808,33.28-16.896c3.77-2.828,9.119-2.064,11.947,1.707
			C341.438,236.548,340.674,241.896,336.904,244.724z"/>
		<path style="fill:#37474F;" d="M358.237,386.804c-5.704,8.046-12.224,15.48-19.455,22.187l-8.875-17.323
			c-2.79-5.427-8.262-8.953-14.357-9.251s-11.885,2.679-15.19,7.808c-3.305,5.129-3.622,11.632-0.833,17.059l11.179,21.76
			c-34.858,18.144-76.361,18.208-111.275,0.171l11.008-21.419c4.231-8.381,0.896-18.605-7.463-22.879
			c-8.359-4.273-18.6-0.99-22.916,7.348l-8.704,16.896c-7.288-6.764-13.864-14.255-19.627-22.357
			c-4.417-6.358-4.032-14.886,0.939-20.821c22.357-27.051,35.925-85.589,40.619-109.312c8.822,4.392,18.054,7.907,27.563,10.496
			v13.397c0,9.426,7.641,17.067,17.067,17.067c9.426,0,17.067-7.641,17.067-17.067c0,9.426,7.641,17.067,17.067,17.067
			c9.426,0,17.067-7.641,17.067-17.067v-13.397c9.509-2.589,18.741-6.104,27.563-10.496c4.693,23.723,18.261,82.261,40.619,109.312
			C362.269,371.918,362.654,380.446,358.237,386.804z"/>
		<g>
			<path style="fill:#CFD8DC;" d="M210.44,407.796l-11.008,21.419c-10.217-5.393-19.66-12.138-28.075-20.053l8.704-16.896
				c4.315-8.338,14.557-11.621,22.916-7.348C211.336,389.191,214.671,399.415,210.44,407.796z"/>
			<path style="fill:#CFD8DC;" d="M338.782,408.991c-8.415,7.916-17.858,14.661-28.075,20.053l-11.179-21.76
				c-2.832-5.431-2.539-11.964,0.769-17.119c3.308-5.156,9.123-8.145,15.241-7.835c6.118,0.311,11.6,3.874,14.369,9.338
				L338.782,408.991z"/>
			<path style="fill:#CFD8DC;" d="M254.984,272.031v8.533c0,9.426-7.641,17.067-17.067,17.067c-9.426,0-17.067-7.641-17.067-17.067
				v-13.397C231.952,270.341,243.437,271.977,254.984,272.031z"/>
			<path style="fill:#CFD8DC;" d="M289.117,267.167v13.397c0,9.426-7.641,17.067-17.067,17.067c-9.426,0-17.067-7.641-17.067-17.067
				v-8.533C266.53,271.977,278.015,270.341,289.117,267.167z"/>
		</g>
		<path style="fill:#6A1B9A;" d="M254.984,161.097c-0.006,5.866-1.195,11.671-3.498,17.067c-6.816-15.553-22.188-25.6-39.169-25.6
			s-32.353,10.047-39.169,25.6c-2.302-5.396-3.492-11.2-3.498-17.067c0-23.564,19.103-42.667,42.667-42.667
			S254.984,137.533,254.984,161.097z"/>
		<ellipse style="fill:#FFFFFF;" cx="212.317" cy="178.164" rx="39.168" ry="25.6"/>
		<path style="fill:#6A1B9A;" d="M340.317,161.097c-0.006,5.866-1.195,11.671-3.498,17.067c-6.816-15.553-22.188-25.6-39.169-25.6
			c-16.981,0-32.353,10.047-39.169,25.6c-2.302-5.396-3.492-11.2-3.498-17.067c0-23.564,19.103-42.667,42.667-42.667
			C321.214,118.431,340.317,137.533,340.317,161.097z"/>
		<ellipse style="fill:#FFFFFF;" cx="297.65" cy="178.164" rx="39.168" ry="25.6"/>
		<g>
			<path style="fill:#2C2F38;" d="M212.317,203.764c-2.263,0.001-4.434-0.898-6.035-2.499c-1.6-1.6-2.499-3.771-2.499-6.035v-8.533
				c0-4.713,3.82-8.533,8.533-8.533s8.533,3.821,8.533,8.533v8.533c0.001,2.263-0.898,4.434-2.499,6.035
				C216.751,202.866,214.58,203.765,212.317,203.764z"/>
			<path style="fill:#2C2F38;" d="M297.65,203.764c-2.263,0.001-4.434-0.898-6.035-2.499c-1.6-1.6-2.499-3.771-2.499-6.035v-8.533
				c0-4.713,3.821-8.533,8.533-8.533c4.713,0,8.533,3.821,8.533,8.533v8.533c0.001,2.263-0.898,4.434-2.499,6.035
				C302.085,202.866,299.914,203.765,297.65,203.764z"/>
		</g>
		<g>
			<path style="fill:#E91E63;" d="M212.317,476.745c-0.287,4.296-2.478,8.239-5.973,10.752c-6.345,4.943-13.679,8.464-21.504,10.325
				c-2.133,0.597-4.437,1.195-6.741,1.621c-9.798,2.017-19.778,3.018-29.781,2.987h-0.256c-2.73,0-5.46-0.085-8.107-0.256
				c-1.535-0.085-3.157-0.171-4.608-0.256c-11.442-0.771-22.696-3.304-33.365-7.509c-10.923-4.608-17.665-10.837-17.665-17.664
				c0-28.331,0-58.709,24.491-92.16c2.389,27.136,24.405,51.797,46.507,65.792c17.348,10.765,36.524,18.256,56.575,22.101
				c0.171,1.536,0.256,2.645,0.341,3.328C212.283,476.117,212.312,476.431,212.317,476.745z"/>
			<path style="fill:#E91E63;" d="M425.65,476.745c0,6.827-6.741,13.056-17.665,17.664c-10.669,4.205-21.923,6.738-33.365,7.509
				c-1.451,0.085-3.073,0.171-4.608,0.256c-2.646,0.171-5.376,0.256-8.107,0.256h-0.256c-10.003,0.032-19.983-0.969-29.781-2.987
				c-2.304-0.427-4.608-1.024-6.741-1.621c-7.825-1.861-15.159-5.383-21.504-10.325c-3.496-2.513-5.686-6.456-5.973-10.752
				c0.005-0.315,0.034-0.628,0.085-0.939c0.085-0.683,0.171-1.792,0.341-3.328c20.051-3.846,39.227-11.337,56.575-22.101
				c22.102-13.995,44.118-38.656,46.508-65.792C425.65,418.036,425.65,448.415,425.65,476.745z"/>
			<path style="fill:#E91E63;" d="M138.589,273.567l-44.032,7.936c-8.225,1.462-16.303-3.227-19.115-11.093
				c-4.779-13.483-9.472-26.88-14.251-40.448c-4.779-13.568-9.643-27.307-14.421-41.045c-1.622-4.267-3.072-8.533-4.522-12.8
				c-3.209-7.551-5.917-15.304-8.107-23.211c-1.294-5.58-1.352-11.376-0.171-16.981c2.019-10.786,9.332-19.831,19.456-24.064
				c18.839-5.672,38.736,4.866,44.629,23.637c8.046,17.822,0.344,38.805-17.322,47.189l22.015,62.72l35.585-6.4
				c0.17,1.792,0.34,3.584,0.511,5.376C139.744,254.094,139.658,263.872,138.589,273.567z"/>
			<path style="fill:#E91E63;" d="M475.826,152.905c-2.19,7.906-4.898,15.66-8.107,23.211c-1.45,4.267-2.9,8.533-4.522,12.8
				c-4.778,13.739-9.643,27.477-14.422,41.045c-4.779,13.568-9.472,26.965-14.25,40.448c-2.811,7.867-10.89,12.555-19.115,11.093
				l-44.032-7.936c-1.069-9.694-1.155-19.472-0.256-29.184c0.171-1.792,0.341-3.584,0.511-5.376l35.585,6.4l22.015-62.72
				c-17.666-8.384-25.368-29.367-17.322-47.189c5.893-18.771,25.79-29.31,44.629-23.637c10.124,4.233,17.437,13.278,19.456,24.064
				C477.179,141.529,477.12,147.325,475.826,152.905z"/>
		</g>
	</g>
	<g>
		<path d="M325.524,253.548c4.276-2.363,8.408-4.976,12.376-7.826c2.448-1.825,3.734-4.818,3.372-7.85
			c-0.362-3.032-2.316-5.639-5.125-6.836c-2.809-1.197-6.043-0.802-8.481,1.036c-21.11,14.67-45.993,22.964-71.683,23.892
			c-25.686-0.977-50.558-9.269-71.692-23.9c-3.772-2.824-9.118-2.055-11.942,1.717c-2.824,3.772-2.055,9.118,1.717,11.942
			c3.968,2.85,8.1,5.463,12.376,7.826c-4.036,20.498-17.502,81.507-39.326,107.999c-7.413,8.905-7.952,21.668-1.317,31.167
			c13.16,18.758,30.516,34.184,50.689,45.052l0.045,0.036l0.073,0.027c18.317,9.582,38.705,14.527,59.377,14.402
			c44.286-0.486,85.494-22.743,110.183-59.513c6.635-9.5,6.096-22.264-1.317-31.171
			C343.026,335.055,329.561,274.046,325.524,253.548z M247.45,281.564c0,4.713-3.82,8.533-8.533,8.533s-8.533-3.821-8.533-8.533
			v-11.289c5.628,1.195,11.329,2.01,17.067,2.439V281.564z M264.517,272.714c5.737-0.429,11.439-1.244,17.067-2.439v11.289
			c0,4.713-3.821,8.533-8.533,8.533c-4.713,0-8.533-3.821-8.533-8.533V272.714z M203.85,404.897l-6.904,13.432
			c-4.895-3.041-9.567-6.427-13.981-10.131l5.694-11.056c2.141-4.195,7.278-5.86,11.473-3.719
			C204.327,395.565,205.992,400.702,203.85,404.897L203.85,404.897z M308.142,404.439c-1.427-2.713-1.293-5.982,0.352-8.569
			c1.645-2.587,4.549-4.095,7.612-3.952c3.062,0.143,5.814,1.914,7.212,4.642l5.883,11.482c-4.414,3.714-9.086,7.111-13.981,10.165
			L308.142,404.439z M352.251,382.839c-3.166,4.45-6.589,8.712-10.25,12.764l-3.492-6.815c-4.176-8.147-12.383-13.446-21.526-13.9
			c-9.144-0.453-17.835,4.008-22.796,11.702c-4.961,7.694-5.439,17.452-1.253,25.594l7.181,13.971
			c-28.121,11.977-59.903,12.012-88.05,0.096l6.977-13.576c6.44-12.583,1.46-28.004-11.123-34.444
			c-12.583-6.44-28.004-1.46-34.444,11.123l-3.319,6.447c-3.732-4.113-7.218-8.444-10.439-12.968
			c-2.219-3.2-1.986-7.497,0.567-10.438c22.912-27.808,36.693-85.098,42.003-111.054c3.434,1.469,7.118,2.89,11.03,4.226v15.995
			c-0.044,10.117,5.899,19.303,15.146,23.408c9.247,4.105,20.046,2.353,27.521-4.466c7.474,6.818,18.274,8.571,27.52,4.466
			c9.247-4.105,15.19-13.291,15.146-23.407v-15.995c3.913-1.336,7.596-2.756,11.03-4.226c5.309,25.956,19.091,83.246,42.003,111.054
			C354.236,375.34,354.469,379.638,352.251,382.839L352.251,382.839z"/>
		<path d="M213.317,213.297c17.174-0.047,33.187-8.678,42.667-22.998c10.334,15.661,28.406,24.413,47.1,22.812
			c18.694-1.602,35.014-13.302,42.533-30.492l0.005-0.024l0.045-0.084c2.762-6.451,4.185-13.395,4.183-20.412
			c0.011-22.593-14.795-42.52-36.43-49.029c-21.635-6.509-44.979,1.939-57.436,20.788c-12.458-18.848-35.801-27.297-57.436-20.788
			c-21.635,6.509-36.441,26.436-36.43,49.029c-0.045,13.593,5.334,26.642,14.946,36.254S199.724,213.343,213.317,213.297z
			 M242.559,179.695c-0.335,0.55-0.713,1.064-1.075,1.591c-0.54,0.782-1.087,1.555-1.683,2.284
			c-0.423,0.516-0.872,1.004-1.321,1.494c-0.616,0.669-1.246,1.32-1.908,1.936c-0.494,0.459-1.004,0.9-1.523,1.328
			c-0.688,0.569-1.398,1.109-2.129,1.62c-0.55,0.388-1.106,0.767-1.678,1.121c-0.763,0.472-1.553,0.899-2.353,1.311
			c-0.588,0.303-1.171,0.613-1.777,0.882c-0.852,0.378-1.733,0.692-2.616,1.001c-0.594,0.207-1.178,0.439-1.784,0.613
			c-0.282,0.081-0.577,0.119-0.86,0.193v-7.372c0-4.713-3.821-8.533-8.533-8.533s-8.533,3.821-8.533,8.533v7.373
			c-0.282-0.072-0.573-0.111-0.85-0.191c-0.631-0.181-1.24-0.421-1.856-0.637c-0.85-0.297-1.696-0.598-2.517-0.961
			c-0.652-0.288-1.281-0.621-1.913-0.949c-0.738-0.382-1.469-0.775-2.175-1.209c-0.642-0.395-1.265-0.819-1.879-1.255
			c-0.64-0.453-1.264-0.926-1.873-1.421c-0.608-0.497-1.202-1.011-1.775-1.55c-0.556-0.521-1.086-1.068-1.608-1.626
			c-0.544-0.583-1.084-1.172-1.587-1.794c-0.494-0.61-0.948-1.254-1.402-1.9c-0.446-0.631-0.896-1.258-1.3-1.923
			c-0.106-0.176-0.189-0.369-0.292-0.547c6.12-10.529,17.379-17.008,29.558-17.01c12.179-0.001,23.439,6.476,29.561,17.004
			C242.763,179.294,242.674,179.505,242.559,179.695z M327.892,179.695c-0.335,0.55-0.713,1.064-1.075,1.591
			c-0.54,0.782-1.087,1.555-1.683,2.284c-0.423,0.516-0.872,1.004-1.321,1.494c-0.616,0.669-1.246,1.32-1.908,1.936
			c-0.494,0.459-1.004,0.9-1.523,1.328c-0.688,0.569-1.398,1.109-2.129,1.62c-0.55,0.388-1.106,0.767-1.678,1.121
			c-0.763,0.472-1.553,0.899-2.353,1.311c-0.588,0.303-1.171,0.613-1.777,0.882c-0.852,0.378-1.733,0.692-2.616,1.001
			c-0.594,0.207-1.178,0.439-1.784,0.613c-0.282,0.081-0.577,0.119-0.86,0.193v-7.372c0-4.713-3.82-8.533-8.533-8.533
			s-8.533,3.821-8.533,8.533v7.373c-0.282-0.072-0.573-0.111-0.85-0.191c-0.631-0.181-1.24-0.421-1.856-0.637
			c-0.85-0.297-1.696-0.598-2.517-0.961c-0.652-0.288-1.281-0.621-1.913-0.949c-0.738-0.382-1.469-0.775-2.175-1.209
			c-0.642-0.395-1.265-0.819-1.879-1.255c-0.64-0.453-1.264-0.926-1.873-1.421c-0.608-0.497-1.202-1.011-1.775-1.55
			c-0.556-0.521-1.086-1.068-1.608-1.626c-0.544-0.583-1.084-1.172-1.587-1.794c-0.494-0.61-0.948-1.254-1.402-1.9
			c-0.446-0.631-0.896-1.258-1.3-1.923c-0.106-0.176-0.189-0.369-0.292-0.547c6.12-10.529,17.379-17.008,29.558-17.01
			c12.179-0.001,23.439,6.476,29.561,17.004C328.096,179.294,328.008,179.505,327.892,179.695z M298.65,127.964
			c17.104,0.051,31.519,12.777,33.69,29.743c-19.28-16.901-48.099-16.901-67.379,0C267.132,140.741,281.546,128.015,298.65,127.964z
			 M213.317,127.964c17.104,0.051,31.519,12.777,33.69,29.743c-19.28-16.901-48.099-16.901-67.379,0
			C181.798,140.741,196.213,128.015,213.317,127.964z"/>
		<path d="M419.325,291.289c10.862-0.002,20.557-6.812,24.242-17.03l18.15-51.504c3.508-9.967,7.05-20,10.467-29.817
			c1.65-4.363,3.133-8.721,4.558-12.933c0.8-2.225,1.692-4.454,2.575-6.696c2.42-5.656,4.368-11.502,5.825-17.479
			c1.564-6.793,1.635-13.844,0.208-20.667c-2.649-13.606-11.948-24.975-24.758-30.271c-23.247-7.366-48.087,5.381-55.658,28.562
			c-8.107,19.359-1.994,41.75,14.825,54.304l-17.183,48.963l-20.579-3.703c0.18-1.707,0.337-3.392,0.521-5.105
			c4.262-27.905,4.716-56.26,1.35-84.287c-2.404-18.516-10.375-35.866-22.856-49.753c12.378-6.328,26.153-9.429,40.048-9.018
			c3.21-0.003,6.147-1.808,7.6-4.671c1.453-2.863,1.176-6.299-0.717-8.892c-17.392-23.847-47.538-29.847-70.099-30.642
			c11.884-16.635,36.403-17.072,37.607-17.079c4.225,0.003,7.815-3.086,8.443-7.263s-1.896-8.186-5.935-9.425
			c-68.386-21.062-106.927,11.298-121.975,28.885C240.934,18.183,202.4-14.173,134.009,6.884c-4.039,1.239-6.563,5.247-5.935,9.424
			c0.628,4.178,4.219,7.266,8.443,7.263c0.296,0,25.469,0.294,37.572,17.079c-22.541,0.803-52.686,6.818-70.064,30.642
			c-1.893,2.593-2.169,6.029-0.717,8.891s4.389,4.668,7.599,4.671c13.895-0.411,27.67,2.691,40.048,9.018
			c-12.482,13.887-20.452,31.236-22.856,49.753c-3.366,28.027-2.912,56.382,1.35,84.288c0.183,1.712,0.341,3.397,0.521,5.105
			l-20.579,3.703L92.208,187.76c16.824-12.56,22.934-34.962,14.818-54.325c-7.589-23.161-32.412-35.893-55.65-28.542
			c-12.808,5.294-22.106,16.66-24.758,30.262c-1.423,6.782-1.361,13.791,0.183,20.546c1.456,6.022,3.413,11.912,5.85,17.609
			c0.883,2.242,1.775,4.471,2.517,6.55c1.483,4.358,2.967,8.717,4.542,12.858c3.492,10.038,7.033,20.07,10.542,30.037l18.133,51.458
			c4.223,11.808,16.34,18.855,28.692,16.688l32.363-5.831c-3.434,17.578-8.818,34.718-16.054,51.102l-0.9,2.129
			c-4.624,9.94-8.132,20.362-10.458,31.075c-0.82,4.546-1.125,9.17-0.908,13.784c-24.262,34.677-24.333,66.465-24.333,94.586
			c0,5.929,2.975,17.125,22.85,25.508c11.568,4.592,23.781,7.352,36.2,8.179l4.567,0.258c2.833,0.183,5.75,0.271,8.917,0.271
			c10.524,0.029,21.023-1.019,31.333-3.129c2.55-0.471,5.117-1.133,7.475-1.792c9.013-2.17,17.446-6.273,24.717-12.025
			c3.753-2.966,6.568-6.954,8.107-11.483c23.202,3.772,46.861,3.772,70.064,0.001c1.507,4.485,4.281,8.437,7.987,11.378
			c7.297,5.801,15.772,9.94,24.833,12.129c2.367,0.658,4.933,1.321,7.267,1.75c10.466,2.146,21.125,3.209,31.808,3.171
			c2.908,0,5.825-0.087,8.592-0.267l4.842-0.275c12.336-0.839,24.466-3.588,35.958-8.15c19.908-8.4,22.883-19.596,22.883-25.525
			c0-28.121-0.071-59.909-24.332-94.586c0.216-4.613-0.089-9.236-0.909-13.78c-2.326-10.715-5.833-21.138-10.458-31.079l-0.9-2.129
			c-7.236-16.384-12.621-33.524-16.054-51.102l32.396,5.835C416.378,291.161,417.85,291.289,419.325,291.289z M94.075,274.097
			c-4.118,0.732-8.166-1.605-9.591-5.538l-18.133-51.479c-3.508-9.946-7.042-19.958-10.6-30.192c-1.583-4.171-3-8.346-4.475-12.667
			c-0.858-2.388-1.8-4.783-2.758-7.196c-2.093-4.869-3.784-9.901-5.058-15.046c-1.009-4.371-1.057-8.909-0.142-13.3
			c1.437-7.944,6.75-14.645,14.158-17.854c14.428-3.947,29.364,4.369,33.608,18.713c6.32,13.452,0.796,29.492-12.467,36.2
			c-4.276,1.676-6.457,6.438-4.933,10.771L95.7,249.231c1.386,3.952,5.436,6.314,9.558,5.575l26.237-4.719
			c0.365,5.748,0.373,11.514,0.024,17.263L94.075,274.097z M201.717,482.081c-5.394,4.078-11.582,6.981-18.167,8.521
			c-1.9,0.533-3.95,1.071-6.217,1.492c-11.801,2.438-23.872,3.3-35.9,2.562l-4.358-0.242c-10.548-0.711-20.925-3.027-30.775-6.867
			c-9.134-3.854-12.45-7.971-12.45-9.8c0-22.603,0.029-45.843,12.723-70.732c9.533,21.341,25.262,39.322,45.144,51.611
			c16.038,9.894,33.566,17.137,51.91,21.451C203.063,480.811,202.423,481.482,201.717,482.081z M418.117,477.747
			c0,1.829-3.317,5.946-12.483,9.817c-9.774,3.81-20.068,6.115-30.533,6.837l-4.634,0.258c-2.466,0.158-5.016,0.237-7.816,0.237
			c-9.484,0.022-18.945-0.932-28.233-2.846c-2.05-0.379-4.1-0.917-6.008-1.45c-6.633-1.557-12.863-4.496-18.283-8.625
			c-0.664-0.568-1.266-1.203-1.798-1.896c18.349-4.313,35.881-11.557,51.923-21.454c19.882-12.289,35.61-30.27,45.143-51.61
			C418.088,431.904,418.117,455.145,418.117,477.747z M383.759,344.943c4.121,8.799,7.273,18.02,9.4,27.5
			c5.1,27.958-17.442,56.192-42.042,71.767c-28.763,17.043-61.707,25.731-95.133,25.087c-33.427,0.643-66.371-8.045-95.133-25.087
			c-24.6-15.575-47.142-43.808-42.042-71.771c2.128-9.479,5.28-18.698,9.4-27.496l0.908-2.146
			c9.435-21.056,15.753-43.373,18.756-66.249c0.033-0.142,0.026-0.289,0.053-0.433c1.186-10.462,1.317-21.017,0.391-31.505
			c-0.179-1.905-0.398-3.844-0.592-5.758c-0.017-0.122,0.03-0.235,0.009-0.358c-0.01-0.056-0.049-0.096-0.06-0.152
			c-0.411-4.072-0.815-8.135-1.256-12.244c-4.042-26.369-4.541-53.161-1.483-79.663c7.4-44.396,35.058-52.513,36.392-52.875
			c4.549-1.179,7.289-5.812,6.13-10.366c-1.159-4.554-5.78-7.314-10.339-6.176c-4.523,1.349-8.832,3.333-12.798,5.893
			c-9.6-7.665-21.217-12.382-33.444-13.58c17.244-9.099,36.723-13.101,56.158-11.537c0.466-0.021,0.928-0.086,1.381-0.195
			c0.402,0.007,0.804-0.017,1.202-0.071c0.106-0.028,0.179-0.107,0.284-0.139c0.506-0.188,0.992-0.426,1.451-0.71
			c0.562-0.259,1.094-0.579,1.586-0.955c0.218-0.187,0.362-0.43,0.561-0.638c0.576-0.561,1.069-1.201,1.464-1.902
			c0.15-0.35,0.276-0.71,0.378-1.078c0.267-0.65,0.449-1.332,0.542-2.029c0.014-0.132,0.094-0.241,0.1-0.374
			c-0.03-0.431-0.095-0.86-0.194-1.281c0.011-0.437-0.013-0.874-0.073-1.307c-0.052-0.2-0.152-0.354-0.206-0.552
			c-0.049-0.145-0.101-0.278-0.157-0.419c-3.402-12.127-11.281-22.51-22.045-29.05c29.998-2.387,58.888,11.875,75.233,37.142
			c0.158,0.233,0.329,0.458,0.51,0.674c0.158,0.226,0.31,0.436,0.49,0.647c0.634,0.771,1.399,1.425,2.259,1.93l0.032,0.028
			c0.412,0.206,0.841,0.377,1.281,0.513c0.237,0.086,0.458,0.217,0.703,0.282c0.704,0.188,1.429,0.283,2.157,0.285l0.009-0.002
			l0.009,0.001c0.731-0.002,1.458-0.099,2.165-0.287c0.229-0.06,0.435-0.185,0.658-0.264c0.454-0.138,0.895-0.314,1.319-0.528
			l0.035-0.03c0.865-0.508,1.634-1.164,2.27-1.94c0.172-0.203,0.318-0.406,0.47-0.622c0.191-0.226,0.369-0.462,0.533-0.708
			c16.599-24.906,45.244-39.039,75.108-37.058c-10.711,6.546-18.548,16.903-21.938,28.989c-0.056,0.14-0.107,0.273-0.156,0.416
			c-0.054,0.198-0.154,0.353-0.206,0.553c-0.06,0.433-0.084,0.87-0.073,1.307c-0.099,0.421-0.164,0.849-0.194,1.281
			c0.007,0.142,0.085,0.255,0.098,0.395c0.08,0.546,0.214,1.083,0.401,1.603c0.133,0.554,0.323,1.093,0.566,1.609
			c0.228,0.365,0.484,0.711,0.766,1.035c0.369,0.535,0.8,1.024,1.284,1.457c0.371,0.268,0.763,0.505,1.173,0.709
			c0.527,0.337,1.09,0.612,1.679,0.821c0.146,0.046,0.25,0.157,0.4,0.196c0.454,0.065,0.913,0.092,1.371,0.079
			c0.399,0.092,0.804,0.155,1.212,0.188c19.435-1.566,38.914,2.436,56.158,11.537c-12.226,1.198-23.843,5.915-33.444,13.58
			c-3.966-2.559-8.275-4.543-12.798-5.893c-4.567-1.164-9.213,1.594-10.377,6.16c-1.164,4.567,1.594,9.213,6.16,10.377
			c1.183,0.321,28.975,8.354,36.4,52.879c3.058,26.502,2.559,53.293-1.483,79.663c-0.442,4.109-0.845,8.172-1.256,12.245
			c-0.012,0.055-0.05,0.095-0.06,0.151c-0.022,0.123,0.025,0.236,0.009,0.358c-0.194,1.915-0.413,3.853-0.592,5.758
			c-0.926,10.487-0.795,21.041,0.39,31.502c0.027,0.146,0.02,0.294,0.054,0.438c3.004,22.876,9.322,45.193,18.756,66.248
			L383.759,344.943z M380.472,250.086l26.236,4.719c4.121,0.733,8.167-1.627,9.558-5.575l22.017-62.721
			c1.524-4.333-0.657-9.095-4.933-10.771c-13.258-6.702-18.784-22.73-12.475-36.179c4.243-14.35,19.181-22.674,33.617-18.733
			c7.41,3.211,12.724,9.915,14.158,17.863c0.919,4.433,0.862,9.012-0.167,13.421c-1.274,5.099-2.958,10.087-5.033,14.916
			c-0.958,2.412-1.9,4.808-2.817,7.342c-1.417,4.175-2.833,8.35-4.492,12.742c-3.483,10.012-7.017,20.025-10.525,29.971
			l-18.15,51.525c-1.435,3.896-5.451,6.209-9.542,5.495l-37.477-6.752C380.099,261.6,380.107,255.835,380.472,250.086
			L380.472,250.086z"/>
	</g>
</g>
<g>
</g>
<g>
</g>
<g>
</g>
<g>
</g>
<g>
</g>
<g>
</g>
<g>
</g>
<g>
</g>
<g>
</g>
<g>
</g>
<g>
</g>
<g>
</g>
<g>
</g>
<g>
</g>
<g>
</g>
</svg>
