<svg id="Capa_1" enable-background="new 0 0 494.875 494.875" height="512" viewBox="0 0 494.875 494.875" width="512" xmlns="http://www.w3.org/2000/svg"><g><g><path d="m481.94 405.685-9.565-13.645c9.713-11.011 15.461-25.602 14.971-41.55-.985-32.091-27.572-57.961-59.678-58.115-7.376-.035-14.444 1.261-20.979 3.662l-106.814-31.434v-2.026c-14.904 7.248-32.561 11.329-52.117 11.329h-.767c-19.536 0-37.202-4.107-52.117-11.399v2.096l-106.727 31.42c-6.531-2.394-13.594-3.685-20.963-3.647-32.054.165-58.607 25.961-59.651 57.999-.519 15.923 5.183 30.501 14.842 41.521l-9.173 12.668c-3.707 5.118-5.702 11.276-5.702 17.595v50.216h479.875v-49.469c0-6.163-1.898-12.175-5.435-17.221z" fill="#8ae897"/><path d="m481.94 405.685-9.565-13.645c9.713-11.011 15.461-25.603 14.971-41.55-.985-32.091-27.572-57.961-59.677-58.115-7.376-.035-14.444 1.261-20.979 3.662l-106.814-31.434v-2.026c-6.209 3.02-12.897 5.485-20 7.339v9.649l127.508 37.523 6.202-2.278c4.401-1.617 9.042-2.436 13.791-2.436h.196c21.284.102 39.13 17.476 39.783 38.729.313 10.216-3.23 20.055-9.979 27.706l-10.421 11.813 18.607 26.543c1.186 1.69 1.812 3.675 1.812 5.74v49.47h20v-49.469c0-6.163-1.897-12.176-5.435-17.221z" fill="#69bdc6"/><path d="m247.758 273.906h-.767c-59.429 0-101.554-38-101.554-88.062 0 0 12.125-144.875 101.934-144.875h.007c90.059 0 102.059 144.875 102.059 144.875.001 50.062-41.999 88.062-101.679 88.062z" fill="#8ae897"/><g fill="#69bdc6"><path d="m247.378 40.969h-.007c-3.445 0-6.763.238-9.983.647 80.938 10.279 92.049 144.228 92.049 144.228 0 47.322-37.531 83.859-92.044 87.718 3.146.224 6.344.344 9.598.344h.767c59.679 0 101.679-38 101.679-88.062.001 0-11.999-144.875-102.059-144.875z"/><path d="m166.556 104.332c-.146-16.443-13.516-29.729-29.993-29.729h-15.125v55.062c0 15.895 12.364 28.895 27.999 29.926 3.086-15.493 8.362-35.812 17.119-55.259z"/><path d="m328.318 104.332c.146-16.443 13.516-29.729 29.993-29.729h15.125v55.062c0 15.895-12.364 28.895-27.999 29.926-3.086-15.493-8.362-35.812-17.119-55.259z"/></g><path d="m308.016 69.5h-45.615c-16.569 0-30-13.431-30-30v-17h45.615c16.569 0 30 13.431 30 30z" fill="#fcad42"/><path d="m278.016 22.5h-20c16.569 0 30 13.431 30 30v17h20v-17c0-16.569-13.432-30-30-30z" fill="#ff905b"/><path d="m284.497 382.987c0-20.468-16.592-37.06-37.06-37.06s-37.06 16.592-37.06 37.06c0 13.813 7.563 25.853 18.769 32.227v19.735h36.582v-19.735c11.206-6.374 18.769-18.414 18.769-32.227z" fill="#fff"/></g><g><path d="m488.082 401.379-6.329-9.028c8.94-12.131 13.557-26.866 13.09-42.091-.537-17.472-7.793-33.872-20.434-46.178-12.636-12.302-29.223-19.123-46.705-19.207-7.234-.032-14.372 1.071-21.197 3.291l-90.14-26.527c11.58-7.871 21.204-17.901 28.2-29.769l-12.922-7.617c-15.56 26.395-46.92 42.153-83.887 42.153h-.767c-54.369 0-93.866-33.718-94.054-80.227.62-6.479 11.993-114.998 73.957-134.642 5.028 14.789 19.04 25.463 35.507 25.463h40.919c31.43 38.918 38.153 104.26 38.616 109.174-.037 8.986-1.555 17.674-4.516 25.827l14.1 5.119c3.594-9.899 5.417-20.423 5.417-31.277l-.025-.619c-.041-.491-.689-8.076-2.706-19.652 15.506-4.66 26.73-19.093 26.73-35.907v-62.561h-22.625c-13.261 0-24.977 6.987-31.648 17.467-3.474-5.93-7.194-11.372-11.147-16.332v-15.739c0-20.678-16.822-37.5-37.5-37.5h-53.115v21.497c-22.54 6.335-41.728 22.721-56.634 48.161-6.662-10.529-18.407-17.555-31.705-17.555h-22.625v62.562c0 16.815 11.226 31.25 26.736 35.908-1.997 11.445-2.656 19.006-2.71 19.644l-.026.625c0 26.571 11.025 50.877 31.045 68.442 2.995 2.627 6.184 5.054 9.512 7.321l-90.167 26.544c-6.821-2.211-13.945-3.298-21.182-3.275-15.81.082-31.195 5.815-43.321 16.146l9.727 11.419c9.438-8.039 21.396-12.501 33.672-12.564 6.316-.036 12.482 1.04 18.344 3.188l2.324.852 61.152-18.002c6.949 18.261 19.094 34.542 34.761 46.393 10.439 7.896 22.032 13.655 34.334 17.149-9.343 8.174-15.261 20.171-15.261 33.531 0 12.869 5.613 24.99 15.06 33.362l-91.931 18.677 2.986 14.7 92.653-18.824v11.547h51.582v-11.547l92.653 18.824 2.986-14.7-91.931-18.677c9.447-8.371 15.06-20.492 15.06-33.362 0-13.503-6.046-25.614-15.563-33.793 12.01-3.533 23.328-9.238 33.54-16.987 15.692-11.909 27.829-28.259 34.741-46.59l62.235 18.315 2.326-.854c5.867-2.155 12.062-3.243 18.357-3.202 27.936.134 51.361 22.943 52.217 50.845.411 13.404-4.241 26.316-13.099 36.358l-3.908 4.43 12.956 18.481c2.667 3.804 4.076 8.27 4.076 12.916v41.97h-72.913l12.568-50.695-14.56-3.609-13.463 54.305h-288.387l-13.463-54.306-14.56 3.609 12.568 50.695h-72.663v-42.716c0-4.77 1.479-9.333 4.276-13.197l12.681-17.513-3.942-4.498c-8.811-10.051-13.422-22.955-12.986-36.333.33-10.138 3.608-19.911 9.48-28.261l-12.27-8.628c-7.557 10.748-11.777 23.335-12.202 36.402-.494 15.168 4.061 29.863 12.917 41.988l-5.827 8.047c-4.663 6.439-7.127 14.045-7.127 21.994v57.716h494.875v-56.97c0-7.742-2.349-15.186-6.793-21.526zm-129.77-319.275h7.625v47.562c0 9.592-6.084 17.896-14.676 21.092-.635-2.837-1.336-5.787-2.11-8.825-3.667-14.39-8.096-27.463-13.251-39.169.942-11.533 10.668-20.66 22.412-20.66zm-118.411-52.104h38.115c12.407 0 22.5 10.093 22.5 22.5v9.5h-38.115c-12.407 0-22.5-10.093-22.5-22.5zm-110.963 99.666v-47.562h7.625c11.796 0 21.557 9.209 22.426 20.815-2.07 4.696-4.032 9.604-5.869 14.747-4.175 11.689-7.249 23.088-9.494 33.096-8.599-3.193-14.688-11.501-14.688-21.096zm133.083 279.028-3.792 2.157v16.597h-21.582v-16.597l-3.792-2.157c-9.238-5.255-14.977-15.105-14.977-25.708 0-16.299 13.26-29.56 29.56-29.56s29.56 13.261 29.56 29.56c-.001 10.603-5.74 20.453-14.977 25.708zm38.885-88.436c-15.662 11.886-34.364 18.168-54.083 18.168-19.668 0-38.33-6.253-53.969-18.083-13.123-9.927-23.362-23.472-29.376-38.68l24.046-7.079v17.789h15v-18.548c13.629 4.955 28.681 7.579 44.468 7.579h.767c15.98 0 31.082-2.642 44.679-7.596v18.564h15v-17.728l22.847 6.724c-5.981 15.286-16.223 28.906-29.379 38.89z"/><path d="m167.128 193.73 27.043 17.536 17.601-9.951c22.034-12.458 49.403-12.445 71.426.036l17.613 9.982 25.862-17.707-8.474-12.377-18.138 12.418-9.469-5.366c-26.579-15.062-59.61-15.079-86.204-.043l-9.687 5.476-19.415-12.589z"/><path d="m187.563 119.938h119.375v15h-119.375z"/><path d="m247.478 135c-10.031 0-19.458 3.91-26.542 11.01l-1.499 1.501 10.615 10.598 1.5-1.502c4.251-4.261 9.907-6.607 15.926-6.607h.012c6.023.003 11.682 2.355 15.932 6.623l1.473 1.479 10.629-10.584-1.473-1.48c-7.084-7.113-16.514-11.033-26.553-11.039-.008.001-.014.001-.02.001z"/></g></g></svg>