<svg id="Capa_1" enable-background="new 0 0 512 512" height="512" viewBox="0 0 512 512" width="512" xmlns="http://www.w3.org/2000/svg"><g><path d="m488.53 512h-50.74c-30.94-45.86-100.69-77.83-181.79-77.83s-150.85 31.97-181.79 77.83h-50.74c-6.77 0-11.62-6.49-9.75-13 9.05-31.4 27.35-58.42 51.54-78.27 27.46-22.55 62.51-35.86 100.18-35.86h181.12c70.85 0 132.41 47.07 151.72 114.13 1.87 6.51-2.98 13-9.75 13z" fill="#384848"/><path d="m488.529 512h-33.732c-14.688-73.894-79.531-127.126-154.88-127.126h46.646c70.843 0 132.406 47.069 151.713 114.128 1.873 6.504-2.979 12.998-9.747 12.998z" fill="#303a3a"/><ellipse cx="256" cy="434.979" fill="#303a3a" rx="145.492" ry="46.396"/><path d="m457.536 512h-403.073c34.298-50.84 111.627-86.285 201.537-86.285s167.239 35.445 201.536 86.285z" fill="#eef4f5"/><path d="m387.912 454.574c-23.161 15.832-73.522 26.805-131.912 26.805s-108.751-10.973-131.912-26.805c36.781-18.124 82.44-28.86 131.912-28.86 49.472.001 95.131 10.736 131.912 28.86z" fill="#cbe5e7"/><path d="m457.536 512h-50.85c-31.02-45.982-97.223-79.363-176.111-85.327 8.345-.632 16.827-.959 25.425-.959 89.91.001 167.239 35.446 201.536 86.286z" fill="#cbe5e7"/><g><circle cx="256" cy="228.026" fill="#fcb44d" r="220.414"/></g><g><path d="m476.416 228.024c0 121.729-98.687 220.417-220.417 220.417-44.929 0-86.736-13.452-121.581-36.553 28.909 15.259 61.847 23.892 96.801 23.892 114.737 0 207.755-93.018 207.755-207.755s-93.018-207.746-207.755-207.746c-34.993 0-67.951 8.652-96.88 23.931 34.865-23.131 76.693-36.602 121.661-36.602 121.729 0 220.416 98.687 220.416 220.416z" fill="#fb9927"/><path d="m417.238 66.787c-43.068-43.068-100.33-66.787-161.238-66.787s-118.17 23.719-161.239 66.787-66.787 100.331-66.787 161.239 23.719 118.17 66.787 161.238 100.331 66.788 161.239 66.788 118.17-23.719 161.238-66.787 66.787-100.33 66.787-161.238-23.718-118.171-66.787-161.24zm-161.238 374.042c-114.79 0-208.628-91.364-212.652-205.191h48.166c4.204 0 7.612-3.408 7.612-7.612s-3.408-7.612-7.612-7.612h-48.166c.485-13.727 2.264-27.131 5.241-40.084l53.162 21.674c.66.177 1.322.261 1.975.261 3.36 0 6.436-2.243 7.347-5.644 1.088-4.061-1.322-8.234-5.383-9.322l-53.153-21.671c3.999-13.014 9.219-25.496 15.519-37.322l31.108 19.676c1.199.692 2.507 1.021 3.799 1.021 2.63 0 5.189-1.366 6.599-3.807 2.102-3.641.855-8.296-2.786-10.398l-31.086-19.663c7.196-11.453 15.452-22.173 24.63-32.027l47.071 49.101c1.486 1.486 3.434 2.229 5.382 2.229s3.896-.743 5.382-2.229c2.973-2.972 2.973-7.792 0-10.764l-47.071-49.101c9.853-9.178 20.574-17.434 32.027-24.63l59.658 103.333c1.41 2.442 3.968 3.807 6.599 3.807 1.291 0 2.6-.329 3.799-1.021 3.64-2.102 4.888-6.757 2.786-10.398l-59.67-103.353c11.825-6.3 24.308-11.52 37.321-15.519l32.8 122.418c.911 3.401 3.987 5.644 7.347 5.644.652 0 1.315-.085 1.975-.261 4.061-1.088 6.47-5.262 5.383-9.322l-32.802-122.427c12.952-2.977 26.355-4.756 40.081-5.241v128.518c0 4.204 3.408 7.612 7.612 7.612s7.612-3.408 7.612-7.612v-128.518c13.727.485 27.129 2.264 40.081 5.241l-32.503 121.308c-1.088 4.061 1.322 8.234 5.383 9.322.66.176 1.322.261 1.975.261 3.36 0 6.436-2.243 7.347-5.644l32.501-121.299c13.014 3.999 25.496 9.219 37.321 15.519l-59.62 103.267c-2.102 3.641-.855 8.296 2.786 10.398 1.199.692 2.507 1.021 3.799 1.021 2.63 0 5.189-1.366 6.599-3.807l59.607-103.245c11.453 7.196 22.174 15.452 32.027 24.63l-50.347 50.347c-2.973 2.972-2.973 7.792 0 10.764 1.486 1.486 3.434 2.229 5.382 2.229s3.896-.743 5.382-2.229l50.347-50.347c9.178 9.853 17.434 20.574 24.63 32.027l-32.889 20.703c-3.64 2.102-4.888 6.757-2.786 10.398 1.41 2.442 3.968 3.807 6.599 3.807 1.291 0 2.6-.329 3.799-1.021l32.911-20.716c6.3 11.825 11.52 24.308 15.519 37.322l-53.707 20.334c-4.061 1.088-6.47 5.262-5.383 9.322.911 3.401 3.987 5.644 7.347 5.644.652 0 1.315-.085 1.975-.261l53.716-20.336c2.977 12.953 4.756 26.356 5.241 40.084h-47.871c-4.204 0-7.612 3.408-7.612 7.612s3.408 7.612 7.612 7.612h47.871c-4.023 113.823-97.861 205.188-212.651 205.188z" fill="#ffd496"/></g><ellipse cx="256" cy="414.042" fill="#fcb44d" rx="145.492" ry="46.396"/><path d="m401.493 414.046c0 3.451-1.177 6.81-3.42 10.047-58.264 32-142.073 12.646-142.073 12.646s-83.809 19.354-142.073-12.645c-2.243-3.237-3.42-6.597-3.42-10.047 0-25.626 65.145-46.4 145.493-46.4s145.493 20.774 145.493 46.399z" fill="#fb9927"/><g><g><circle cx="135.386" cy="159.59" fill="#704545" r="45.06"/><path d="m180.451 159.589c0 18.555-11.211 34.487-27.227 41.399 4.657-7.091 7.365-15.573 7.365-24.688 0-24.888-20.178-45.055-45.066-45.055-6.333 0-12.37 1.307-17.839 3.677 8.04-12.275 21.916-20.389 37.701-20.389 24.888.001 45.066 20.168 45.066 45.056z" fill="#593637"/><circle cx="374.506" cy="159.59" fill="#704545" r="45.06"/><path d="m419.562 159.589c0 24.888-20.167 45.066-45.055 45.066-4.657 0-9.156-.706-13.382-2.013 18.355-5.711 31.684-22.823 31.684-43.053s-13.329-37.342-31.684-43.043c4.225-1.307 8.724-2.013 13.382-2.013 24.887.001 45.055 20.168 45.055 45.056z" fill="#593637"/></g></g><path d="m256 145.012c-149.613 0-196.904 94.755-196.904 151.564 0 163.667 196.904 118.192 196.904 118.192s196.904 45.475 196.904-118.192c0-56.809-47.292-151.564-196.904-151.564z" fill="#384848"/><path d="m452.9 296.576c0 115.356-97.823 126.82-155.564 123.533 56.077-3.403 124.06-27.364 124.06-123.533 0-54.77-43.949-144.796-181.148-151.202 5.121-.232 10.368-.358 15.752-.358 149.611 0 196.9 94.746 196.9 151.56z" fill="#303a3a"/><g><path d="m287.505 419.382c-18.871-1.696-31.505-4.615-31.505-4.615s-12.634 2.919-31.505 4.615l8.493-37.374c1.212-5.332 4.52-9.746 8.925-12.465 3.382 4.004 8.44 6.554 14.088 6.554s10.705-2.55 14.088-6.554c4.404 2.718 7.713 7.133 8.925 12.465z" fill="#eef4f5"/></g><g><g><g><g><path d="m281.109 281.733s-7.637-70.993 50.407-70.993c57.525 0 109.978 98.796 29.786 154.776s-80.193-83.783-80.193-83.783z" fill="#ac6d6d"/><path d="m361.304 365.518c-19.367 13.519-34.065 15.626-45.203 11.032 6.312-2.065 13.287-5.637 21.021-11.032 74.811-52.22 34.192-141.698-18.292-153.478 3.835-.843 8.05-1.296 12.686-1.296 57.521 0 109.973 98.792 29.788 154.774z" fill="#9a5e5f"/></g></g><g><g><g><g><circle cx="325.998" cy="288.46" fill="#eef4f5" r="44.634"/><path d="m370.635 288.457c0 24.655-19.99 44.634-44.634 44.634-5.903 0-11.54-1.146-16.696-3.233 21.125-1.985 37.657-19.765 37.657-41.401 0-21.637-16.532-39.417-37.657-41.401 5.156-2.087 10.793-3.233 16.696-3.233 24.645 0 44.634 19.99 44.634 44.634z" fill="#cbe5e7"/></g></g></g><g><g><circle cx="325.998" cy="288.458" fill="#3f5959" r="17.094"/><path d="m343.095 288.46c0 9.438-7.654 17.092-17.1 17.092-3.151 0-6.103-.848-8.63-2.344 7.198-1.056 12.725-7.254 12.725-14.749 0-7.494-5.527-13.693-12.725-14.749 2.527-1.496 5.479-2.343 8.63-2.343 9.446 0 17.1 7.647 17.1 17.093z" fill="#384848"/></g></g></g></g><g><g><g><path d="m230.891 281.733s7.637-70.993-50.407-70.993c-57.525 0-109.978 98.796-29.786 154.776s80.193-83.783 80.193-83.783z" fill="#ac6d6d"/><path d="m230.891 281.73s0 114.018-59.09 94.841c35.056-14.341 35.056-94.841 35.056-94.841s6.48-60.165-37.795-69.701c3.762-.843 7.576-1.285 11.422-1.285 58.046 0 50.407 70.986 50.407 70.986z" fill="#9a5e5f"/></g></g><g><g><g><g><circle cx="185.998" cy="288.46" fill="#eef4f5" r="44.634"/><path d="m230.635 288.457c0 24.655-19.99 44.634-44.634 44.634-5.903 0-11.54-1.146-16.696-3.233 21.125-1.985 37.657-19.765 37.657-41.401 0-21.637-16.532-39.417-37.657-41.401 5.156-2.087 10.793-3.233 16.696-3.233 24.645 0 44.634 19.99 44.634 44.634z" fill="#cbe5e7"/></g></g></g><g><g><circle cx="185.998" cy="288.458" fill="#3f5959" r="17.094"/><path d="m203.095 288.46c0 9.438-7.654 17.092-17.1 17.092-3.151 0-6.103-.848-8.63-2.344 7.198-1.056 12.725-7.254 12.725-14.749 0-7.494-5.527-13.693-12.725-14.749 2.527-1.496 5.479-2.343 8.63-2.343 9.446 0 17.1 7.647 17.1 17.093z" fill="#384848"/></g></g></g></g></g><g><path d="m256 383.704c-14.232 0-25.664-11.151-26.026-25.386-.107-4.202 3.213-7.696 7.416-7.802 4.223-.084 7.696 3.214 7.802 7.416.15 5.916 4.898 10.55 10.808 10.55s10.658-4.634 10.808-10.55c.107-4.203 3.576-7.526 7.802-7.416 4.203.107 7.523 3.6 7.416 7.802-.362 14.235-11.794 25.386-26.026 25.386z" fill="#303a3a"/></g><g><path d="m256.083 336.135h-.166c-11.687 0-22.06-7.488-25.74-18.58l-1.182-3.563c-2.494-7.518 3.104-15.273 11.025-15.273h31.96c7.921 0 13.519 7.754 11.025 15.273l-1.182 3.563c-3.68 11.092-14.053 18.58-25.74 18.58z" fill="#d5b1b1"/><path d="m283.005 313.993-1.18 3.561c-3.688 11.095-14.056 18.576-25.741 18.576h-.169c-3.172 0-6.248-.548-9.125-1.581 7.702-2.75 13.94-8.914 16.616-16.996l1.18-3.561c2.497-7.523-3.108-15.278-11.021-15.278h18.418c7.914.001 13.52 7.756 11.022 15.279z" fill="#c49292"/></g></g></svg>