<svg id="Layer_1" height="512" viewBox="0 0 512 512" width="512" xmlns="http://www.w3.org/2000/svg" data-name="Layer 1"><path d="m328 208c128-89 16-200 16-200 16 88-56.206 120.441-56.206 120.441z" fill="#bc0636"/><path d="m288.387 128.85s72.213-32.773 56.45-120.533l.125-.131c.1.1.232.246.4.426 2.676 7.485 28.381 82.945-3.222 135.658a91.5 91.5 0 0 1 -31.765 31.584z" fill="#fff" opacity=".1"/><path d="m109.752 128.85s-72.397-32.85-56.397-120.85c0 0-109.355 112.556 18.645 201.556z" fill="#bc0636"/><path d="m109.752 128.85s-72.216-32.773-56.452-120.533l-.125-.131c-.1.1-.232.246-.4.426-2.675 7.488-28.375 82.945 3.225 135.658a91.5 91.5 0 0 0 31.765 31.584z" fill="#fff" opacity=".1"/><path d="m360 512v-12a60 60 0 0 0 -60-60h-12a40 40 0 0 1 -40-40v-24.307h-96v24.307a40 40 0 0 1 -40 40h-12a60 60 0 0 0 -60 60v12z" fill="#db0534"/><path d="m248.67 407.263a40.186 40.186 0 0 1 -.67-7.263v-24.307h-96v24.307a39.8 39.8 0 0 1 -5.249 19.8c37.702 10.688 79.87-3.177 101.919-12.537z" fill="#351e27" opacity=".39"/><path d="m200 400a128 128 0 0 1 -128-128v-97.381a46.619 46.619 0 0 1 46.619-46.619h162.762a46.619 46.619 0 0 1 46.619 46.619v97.381a128 128 0 0 1 -128 128z" fill="#db0534"/><circle cx="144" cy="224" fill="#351e27" r="24"/><circle cx="248" cy="224" fill="#351e27" r="24"/><path d="m504 224v155.677a36.323 36.323 0 0 1 -36.323 36.323h-63.354a36.323 36.323 0 0 1 -36.323-36.323v-155.677l24 32v112h32v-160l16-48 8 48v160h32v-112z" fill="#5b223c"/><path d="m416 512v-96h32v96" fill="#5b223c"/><path d="m248 296a48 48 0 0 1 -96 0z" fill="#870a2a"/><path d="m144 296v-168h-25.381a46.619 46.619 0 0 0 -46.619 46.619v97.381a128 128 0 0 0 128 128c2.429 0 4.84-.074 7.235-.208-63.226-16.513-63.235-103.792-63.235-103.792z" fill="#fff" opacity=".1"/><path d="m104 464c11.166-11.166 18.431-14.551 21.8-26.447a39.917 39.917 0 0 1 -13.8 2.447h-12a60 60 0 0 0 -60 60v12h51.8s-3.8-32 12.2-48z" fill="#fff" opacity=".1"/><g fill="#260717"><path d="m248 256a31.976 31.976 0 0 0 27.7-48h4.3a8 8 0 0 0 8-8v-32h-16v24h-48v10.868a31.976 31.976 0 0 0 24 53.132zm16-32a16 16 0 1 1 -16-16 16.018 16.018 0 0 1 16 16z"/><path d="m57.017.887a8 8 0 0 0 -9.4 1.538c-2.1 2.16-51.327 53.624-45.266 116.48 3.459 35.877 24.2 67.748 61.648 94.783v58.312a136.191 136.191 0 0 0 80 123.929v4.071a32.036 32.036 0 0 1 -32 32h-11.999a68.077 68.077 0 0 0 -68 68v12h16v-12a52.059 52.059 0 0 1 52-52h12a48.053 48.053 0 0 0 47.95-46.021 136.213 136.213 0 0 0 80.1 0 48.052 48.052 0 0 0 47.95 46.021h12a52.059 52.059 0 0 1 52 52v12h16v-12a68.077 68.077 0 0 0 -68-68h-12a32.036 32.036 0 0 1 -32-32v-4.071a136.191 136.191 0 0 0 80-123.929v-59.867c37.361-26.971 57.863-58.637 60.951-94.174 5.437-62.574-45.163-113.5-47.319-115.641a8 8 0 0 0 -13.5 7.113c6.143 33.785-.564 62.766-19.936 86.139a103.77 103.77 0 0 1 -29.88 24.664c-1.626-.146-3.269-.233-4.933-.233h-162.764a54.8 54.8 0 0 0 -7.581.538 103.971 103.971 0 0 1 -29.352-24.252c-19.766-23.587-26.649-52.811-20.459-86.856a8 8 0 0 0 -4.21-8.544zm266.063 111c19.27 1.309 20.816 13.724 20.923 16.324v-.106l16-.206c0-.274-.655-23.461-25.345-30.263 10.318-15.043 19.488-36.285 19.639-64.386 13.3 18.935 29.643 49.65 26.717 83.326-2.406 27.689-17.53 53-45.011 75.41v-17.367a54.662 54.662 0 0 0 -29.307-48.377 122.05 122.05 0 0 0 16.384-14.356zm-41.699 24.113a38.663 38.663 0 0 1 38.619 38.619v97.381a120 120 0 0 1 -240 0v-97.381a38.663 38.663 0 0 1 38.619-38.619zm-218.615-38.219c-10.6 2.86-16.661 8.673-20.066 13.781a31.772 31.772 0 0 0 -5.345 16.438h16c0-.624.265-14.663 21.008-15.9a123.268 123.268 0 0 0 17.268 15.066 54.642 54.642 0 0 0 -27.631 47.453v18.923c-27.621-22.507-42.981-48.042-45.713-76.075-3.25-33.343 12.013-64 24.79-83.233.368 27.633 9.467 48.618 19.689 63.547z"/><path d="m248 288h-96a8 8 0 0 0 -8 8 56 56 0 0 0 112 0 8 8 0 0 0 -8-8zm-48 48a40.071 40.071 0 0 1 -39.2-32h7.2v8h16v-8h32v8h16v-8h7.2a40.071 40.071 0 0 1 -39.2 32z"/><path d="m506.53 216.411a8 8 0 0 0 -8.93 2.79l-24 32a8 8 0 0 0 -1.6 4.799v104h-16v-152a8.028 8.028 0 0 0 -.109-1.315l-8-48a8 8 0 0 0 -15.48-1.214l-16 48a8 8 0 0 0 -.411 2.529v152h-16v-104a8 8 0 0 0 -1.6-4.8l-24-32a8 8 0 0 0 -14.4 4.8v155.677a44.373 44.373 0 0 0 44.323 44.323h3.677v88h16v-88h16v88h16v-88h11.677a44.373 44.373 0 0 0 44.323-44.323v-155.677a8 8 0 0 0 -5.47-7.589zm-10.53 163.266a28.355 28.355 0 0 1 -28.323 28.323h-63.354a28.355 28.355 0 0 1 -28.323-28.323v-131.677l8 10.667v109.333a8 8 0 0 0 8 8h32a8 8 0 0 0 8-8v-158.7l5.4-16.212 2.6 15.576v159.336a8 8 0 0 0 8 8h32a8 8 0 0 0 8-8v-109.333l8-10.667z"/><path d="m112 208h4.3a32 32 0 1 0 51.7-5.132v-10.868h-48v-24h-16v32a8 8 0 0 0 8 8zm32 32a16 16 0 1 1 16-16 16.018 16.018 0 0 1 -16 16z"/></g></svg>