<?xml version="1.0" encoding="iso-8859-1"?>
<!-- Generator: Adobe Illustrator 19.0.0, SVG Export Plug-In . SVG Version: 6.00 Build 0)  -->
<svg version="1.1" id="Layer_1" xmlns="http://www.w3.org/2000/svg" xmlns:xlink="http://www.w3.org/1999/xlink" x="0px" y="0px"
	 viewBox="0 0 507.697 507.697" style="enable-background:new 0 0 507.697 507.697;" xml:space="preserve">
<g>
	<path style="fill:#434C6D;" d="M109.647,293.958c70.889,70.889,172.907,90.391,223.809,39.498
		c50.893-50.902,31.39-152.92-39.498-223.809c-43.762-43.762-94.832-63.32-142.01-62.483c3.463-12.502,0.438-26.429-9.384-36.259
		c-14.55-14.541-38.121-14.541-52.662,0c-6.274,6.274-9.672,14.234-10.529,22.407c-1.704-5.781-4.664-11.264-9.225-15.816
		c-14.541-14.55-38.111-14.55-52.662,0c-14.541,14.541-14.541,38.111,0,52.652c4.561,4.561,10.045,7.522,15.825,9.225
		c-8.173,0.856-16.133,4.254-22.407,10.529c-14.541,14.541-14.541,38.111,0,52.662c9.83,9.83,23.757,12.847,36.259,9.384
		C46.327,199.126,65.885,250.196,109.647,293.958"/>
	<path style="fill:#252E49;" d="M333.453,333.453c8.657-8.657,15.22-18.786,20.061-29.845L500.393,458
		c10.287,11.925,9.635,29.761-1.499,40.895c-11.134,11.134-28.97,11.785-40.895,1.499L303.609,353.515
		C314.668,348.674,324.796,342.111,333.453,333.453"/>
	<path style="fill:#E8EDEE;" d="M139.269,270.919c56.348,56.348,131.5,72.555,167.852,36.203s20.145-111.504-36.203-167.852
		s-131.5-72.555-167.852-36.203S82.921,214.571,139.269,270.919"/>
	<g>
		<path style="fill:#C7D6D8;" d="M192.012,265.837c-1.396,0-2.821-0.316-4.152-0.977c-4.599-2.309-6.47-7.894-4.17-12.493
			l46.545-93.091c2.309-4.599,7.894-6.442,12.493-4.17c4.599,2.309,6.47,7.894,4.17,12.493l-46.545,93.091
			C198.715,263.956,195.429,265.837,192.012,265.837"/>
		<path style="fill:#C7D6D8;" d="M154.776,219.291c-1.629,0-3.286-0.428-4.785-1.331c-4.403-2.644-5.837-8.36-3.184-12.772
			l27.927-46.545c2.644-4.403,8.36-5.837,12.772-3.184c4.403,2.644,5.837,8.36,3.184,12.772l-27.927,46.545
			C161.022,217.681,157.941,219.291,154.776,219.291"/>
	</g>
</g>
<g>
</g>
<g>
</g>
<g>
</g>
<g>
</g>
<g>
</g>
<g>
</g>
<g>
</g>
<g>
</g>
<g>
</g>
<g>
</g>
<g>
</g>
<g>
</g>
<g>
</g>
<g>
</g>
<g>
</g>
</svg>
