<svg id="Слой_1" data-name="Слой 1" xmlns="http://www.w3.org/2000/svg" viewBox="0 0 492.01 504.32"><defs><style>.cls-1{fill:#b0d3f0;}.cls-2{fill:#955ba5;}.cls-3{fill:#90bae1;}.cls-4{fill:#5d4c72;}.cls-5{fill:#4482c3;}.cls-6{fill:#894b9d;}.cls-7{fill:#cf976a;}.cls-8{fill:#b49aca;}.cls-9{fill:#2fa8cc;}.cls-10{fill:#f0c419;}.cls-11{fill:#f29c1f;}</style></defs><g id="_027---Experiments" data-name="027---Experiments"><path id="Shape" class="cls-1" d="M110.93,170.67v256a42.67,42.67,0,0,0,85.34,0v-256Z" transform="translate(-11.41 -7.7)"/><path id="Shape-2" data-name="Shape" class="cls-2" d="M196.27,366.93v59.74a42.67,42.67,0,0,1-85.34,0V341.33a19.54,19.54,0,0,1,6-14.93,17.07,17.07,0,0,1,24.49,2.47,44.34,44.34,0,0,1,4.18,21A28.12,28.12,0,0,0,154.11,368C165.72,377.69,184.23,372.74,196.27,366.93Z" transform="translate(-11.41 -7.7)"/><rect id="Rectangle-path" class="cls-3" x="90.99" y="137.37" width="102.4" height="34.13" rx="8.53"/><path id="Shape-3" data-name="Shape" class="cls-1" d="M469.33,17.07H329.56a8.53,8.53,0,0,0-7.68,12.37c9,18.26,29.61,59.73,35.58,71.17,1.45,3,.94-23.38.94,360.19H477.87V25.6A8.53,8.53,0,0,0,469.33,17.07Z" transform="translate(-11.41 -7.7)"/><path id="Shape-4" data-name="Shape" class="cls-2" d="M477.87,264.53V460.8H358.4V247.47A52.74,52.74,0,0,0,418.13,256C459.26,235.43,477.87,264.53,477.87,264.53Z" transform="translate(-11.41 -7.7)"/><path id="Shape-5" data-name="Shape" class="cls-4" d="M359.17,460.8H477.1l24.92,38A8.54,8.54,0,0,1,494.93,512H341.33a8.53,8.53,0,0,1-7-13.23Z" transform="translate(-11.41 -7.7)"/><path id="Shape-6" data-name="Shape" class="cls-5" d="M409.6,102.4a8.53,8.53,0,0,1-8.53,8.53H358.4a21,21,0,0,0-3.84-16.12c2.56-1.28,0-.94,46.51-.94a8.54,8.54,0,0,1,8.53,8.53Z" transform="translate(-11.41 -7.7)"/><path id="Shape-7" data-name="Shape" class="cls-5" d="M409.6,153.6a8.53,8.53,0,0,1-8.53,8.53H358.4V145.07h42.67A8.53,8.53,0,0,1,409.6,153.6Z" transform="translate(-11.41 -7.7)"/><path id="Shape-8" data-name="Shape" class="cls-5" d="M409.6,204.8a8.53,8.53,0,0,1-8.53,8.53H358.4V196.27h42.67A8.53,8.53,0,0,1,409.6,204.8Z" transform="translate(-11.41 -7.7)"/><path id="Shape-9" data-name="Shape" class="cls-6" d="M409.6,307.2a8.53,8.53,0,0,1-8.53,8.53H358.4V298.67h42.67A8.53,8.53,0,0,1,409.6,307.2Z" transform="translate(-11.41 -7.7)"/><path id="Shape-10" data-name="Shape" class="cls-6" d="M409.6,358.4a8.53,8.53,0,0,1-8.53,8.53H358.4V349.87h42.67A8.53,8.53,0,0,1,409.6,358.4Z" transform="translate(-11.41 -7.7)"/><path id="Shape-11" data-name="Shape" class="cls-6" d="M409.6,409.6a8.53,8.53,0,0,1-8.53,8.53H358.4V401.07h42.67A8.53,8.53,0,0,1,409.6,409.6Z" transform="translate(-11.41 -7.7)"/><path id="Rectangle-path-2" data-name="Rectangle-path" class="cls-7" d="M53.67,256H253.44v34.13H53.67Z" transform="translate(-11.41 -7.7)"/><circle id="Oval" class="cls-8" cx="150.72" cy="393.37" r="8.53"/><circle id="Oval-2" data-name="Oval" class="cls-8" cx="432.32" cy="290.97" r="8.53"/><circle id="Oval-3" data-name="Oval" class="cls-8" cx="406.72" cy="325.1" r="8.53"/><circle id="Oval-4" data-name="Oval" class="cls-8" cx="432.32" cy="376.3" r="8.53"/><circle id="Oval-5" data-name="Oval" class="cls-8" cx="415.26" cy="418.97" r="8.53"/><circle id="Oval-6" data-name="Oval" class="cls-8" cx="133.66" cy="418.97" r="8.53"/><path id="Shape-12" data-name="Shape" class="cls-9" d="M132.27,119.47a8.52,8.52,0,0,1-7.34-4.18,39.51,39.51,0,0,1,0-40,22.2,22.2,0,0,0,0-22.52,39.51,39.51,0,0,1,0-40,8.54,8.54,0,0,1,14.68,8.54,22.17,22.17,0,0,0,0,22.53,39.68,39.68,0,0,1,0,40.1,22.17,22.17,0,0,0,0,22.53,8.54,8.54,0,0,1-7.34,13.06Z" transform="translate(-11.41 -7.7)"/><path id="Shape-13" data-name="Shape" class="cls-9" d="M174.93,119.47a8.54,8.54,0,0,1-7.34-4.18,39.56,39.56,0,0,1,0-40,22.15,22.15,0,0,0,0-22.52,39.56,39.56,0,0,1,0-40,8.54,8.54,0,1,1,14.68,8.54,22.22,22.22,0,0,0,0,22.53,39.64,39.64,0,0,1,0,40.1,22.22,22.22,0,0,0,0,22.53,8.54,8.54,0,0,1-7.34,13.06Z" transform="translate(-11.41 -7.7)"/><path id="Shape-14" data-name="Shape" class="cls-10" d="M68.27,469.33H25.6V217.6a21.34,21.34,0,0,1,42.67,0Z" transform="translate(-11.41 -7.7)"/><path id="Shape-15" data-name="Shape" class="cls-10" d="M281.6,469.33H238.93V217.6a21.34,21.34,0,0,1,42.67,0Z" transform="translate(-11.41 -7.7)"/><path id="Shape-16" data-name="Shape" class="cls-11" d="M25.6,460.8H68.27l13.31,39.94A8.53,8.53,0,0,1,73.05,512H20.39a8.53,8.53,0,0,1-8.53-11.26Z" transform="translate(-11.41 -7.7)"/><path id="Shape-17" data-name="Shape" class="cls-11" d="M238.93,460.8H281.6l13.31,39.94A8.53,8.53,0,0,1,286.38,512H233.73a8.53,8.53,0,0,1-8.11-11.26Z" transform="translate(-11.41 -7.7)"/></g></svg>