<svg id="Слой_1" data-name="Слой 1" xmlns="http://www.w3.org/2000/svg" viewBox="0 0 443.9 512"><defs><style>.cls-1{fill:none;stroke:#000;stroke-linecap:round;stroke-linejoin:round;stroke-width:17.66px;}.cls-2{fill:#9fc9d3;}.cls-3{fill:#894b9d;}.cls-4{fill:#955ba5;}.cls-5{fill:#3d324c;}</style></defs><path class="cls-1" d="M247.13,379.59a26.49,26.49,0,1,1-26.49-26.49A26.49,26.49,0,0,1,247.13,379.59Z" transform="translate(-34)"/><path class="cls-2" d="M442.57,512H69.29A35.31,35.31,0,0,1,40.74,456L180.65,263.5A70.59,70.59,0,0,0,194.16,222V17.66H317.75V222a70.64,70.64,0,0,0,13.5,41.5L471.13,455.9A35.31,35.31,0,0,1,442.57,512Z" transform="translate(-34)"/><path class="cls-3" d="M407.88,476.69H103.94a17.65,17.65,0,0,1-14.3-28.07l110-151.13,30.55,8.21a95.7,95.7,0,0,0,53.23-1.06l27.8-8.56,111,152.54a17.66,17.66,0,0,1-14.3,28.07Z" transform="translate(-34)"/><path class="cls-4" d="M264.78,211.86a26.48,26.48,0,1,1,26.48-26.48A26.49,26.49,0,0,1,264.78,211.86Zm0-35.31a8.83,8.83,0,1,0,8.83,8.83A8.83,8.83,0,0,0,264.78,176.55Z" transform="translate(-34)"/><path class="cls-4" d="M247.13,105.93a26.48,26.48,0,1,1,18.72-7.75A26.49,26.49,0,0,1,247.13,105.93Zm0-35.31A8.83,8.83,0,1,0,256,79.45,8.83,8.83,0,0,0,247.13,70.62Z" transform="translate(-34)"/><path class="cls-4" d="M282.44,132.41a8.79,8.79,0,0,1-3.36-.7,8.46,8.46,0,0,1-5.47-8.12,8.61,8.61,0,0,1,.71-3.36,8.12,8.12,0,0,1,1.85-2.91,9.26,9.26,0,0,1,8-2.39,6,6,0,0,1,1.59.53,7.18,7.18,0,0,1,1.59.8,13.6,13.6,0,0,1,1.32,1.06,9.1,9.1,0,0,1,1.86,2.91,7.49,7.49,0,0,1,.7,3.36,9.26,9.26,0,0,1-2.56,6.27,13.51,13.51,0,0,1-1.32,1,6.41,6.41,0,0,1-1.59.8,6,6,0,0,1-1.59.53A13,13,0,0,1,282.44,132.41Z" transform="translate(-34)"/><path class="cls-4" d="M238.3,256a8.71,8.71,0,0,1-3.35-.71,9,9,0,0,1-2.92-1.85,9.27,9.27,0,0,1-2.56-6.27,8.6,8.6,0,0,1,.71-3.35,8,8,0,0,1,1.85-2.91,9.2,9.2,0,0,1,8-2.39,5.84,5.84,0,0,1,1.59.53,6.74,6.74,0,0,1,1.59.79,14.83,14.83,0,0,1,1.33,1.07,9.24,9.24,0,0,1,1.85,2.91,7.48,7.48,0,0,1,.71,3.35,9.32,9.32,0,0,1-2.56,6.27,16.69,16.69,0,0,1-1.33,1.06,6.74,6.74,0,0,1-1.59.79,5.23,5.23,0,0,1-1.59.53A13,13,0,0,1,238.3,256Z" transform="translate(-34)"/><path class="cls-5" d="M282.44,441.38a8.61,8.61,0,0,1-3.36-.71,8.9,8.9,0,0,1-2.91-1.85,9.27,9.27,0,0,1-2.56-6.27,8.6,8.6,0,0,1,.71-3.35,8,8,0,0,1,1.85-2.91,9.2,9.2,0,0,1,8-2.39,6,6,0,0,1,1.59.53,6.78,6.78,0,0,1,1.59.8,12.25,12.25,0,0,1,1.32,1.06,9.1,9.1,0,0,1,1.86,2.91,7.45,7.45,0,0,1,.7,3.35,9.22,9.22,0,0,1-2.56,6.27,13.6,13.6,0,0,1-1.32,1.06,6.74,6.74,0,0,1-1.59.79,5.32,5.32,0,0,1-1.59.53A13,13,0,0,1,282.44,441.38Z" transform="translate(-34)"/><path class="cls-5" d="M300.09,353.1a8.78,8.78,0,0,1-3.35-.7,8.48,8.48,0,0,1-5.48-8.12,9,9,0,0,1,.71-3.36,8.4,8.4,0,0,1,1.85-2.91,9.24,9.24,0,0,1,8-2.38,5.32,5.32,0,0,1,1.59.53A6.56,6.56,0,0,1,305,337a13.31,13.31,0,0,1,1.32,1.06,8.9,8.9,0,0,1,1.85,2.91,7.36,7.36,0,0,1,.71,3.36,9.31,9.31,0,0,1-2.56,6.26A13.31,13.31,0,0,1,305,351.6a7,7,0,0,1-1.59.8,6,6,0,0,1-1.59.53A13.25,13.25,0,0,1,300.09,353.1Z" transform="translate(-34)"/><path class="cls-2" d="M185.33,0H326.57a17.66,17.66,0,1,1,0,35.31H185.33a17.66,17.66,0,0,1,0-35.31Z" transform="translate(-34)"/></svg>