<svg id="Слой_1" data-name="Слой 1" xmlns="http://www.w3.org/2000/svg" viewBox="0 0 512 512"><defs><style>.cls-1{fill:#f6db6d;}.cls-2{fill:#f59f57;}.cls-3{fill:#cd4f38;}.cls-4{fill:#bddcf3;}.cls-5{fill:#fe9189;}.cls-6{fill:#bfa057;}</style></defs><path class="cls-1" d="M414.9,150.07c-55.75,0-91,17.44-111.07,32.31a17.83,17.83,0,0,0,1.76.83c46.37,18.19,74,63.08,74,116.49a120.51,120.51,0,0,1-17.66,62.81v7.37a36.19,36.19,0,0,0,36.2,36.19h7.94v15c0,16.12,19.2,29.14,35.31,29.14H459v35.31a26.48,26.48,0,0,0,53,0V256C512,194.21,476.69,150.07,414.9,150.07Z"/><path class="cls-1" d="M97.1,150.07c55.75,0,91.05,17.44,111.07,32.31a17.83,17.83,0,0,1-1.76.83c-46.37,18.19-74,63.08-74,116.49a120.51,120.51,0,0,0,17.66,62.81v7.37a36.2,36.2,0,0,1-36.19,36.19h-7.95v15c0,16.12-19.2,29.14-35.31,29.14H53v35.31a26.48,26.48,0,0,1-53,0V256C0,194.21,35.31,150.07,97.1,150.07Z"/><path class="cls-2" d="M459,459a8.83,8.83,0,0,1-8.83-8.83V317.79a8.83,8.83,0,1,1,17.65,0V450.21A8.83,8.83,0,0,1,459,459Z"/><path class="cls-2" d="M406.07,414.9a8.83,8.83,0,0,1-8.83-8.83v-53a8.83,8.83,0,0,1,17.66,0v53A8.83,8.83,0,0,1,406.07,414.9Z"/><path class="cls-2" d="M450.21,238.34a8.82,8.82,0,0,1-8.56-6.69c-.27-1.1-8-28.61-44.41-28.61a99.53,99.53,0,0,0-45.9,14.51A8.83,8.83,0,0,1,341,203.25a115.93,115.93,0,0,1,56.26-17.87c40.37,0,57.9,27.47,61.53,42a8.83,8.83,0,0,1-6.42,10.7A9.08,9.08,0,0,1,450.21,238.34Z"/><path class="cls-2" d="M61.79,238.34a9.17,9.17,0,0,1-2.15-.26,8.83,8.83,0,0,1-6.42-10.7c3.64-14.53,21.17-42,61.54-42a115.94,115.94,0,0,1,56.29,17.87,8.83,8.83,0,0,1-10.35,14.3A99.49,99.49,0,0,0,114.76,203c-36.82,0-44.33,28.33-44.4,28.61A8.82,8.82,0,0,1,61.79,238.34Z"/><path class="cls-2" d="M53,459a8.83,8.83,0,0,1-8.82-8.83V317.79a8.83,8.83,0,1,1,17.65,0V450.21A8.83,8.83,0,0,1,53,459Z"/><path class="cls-2" d="M105.93,414.9a8.83,8.83,0,0,1-8.83-8.83v-53a8.83,8.83,0,0,1,17.66,0v53A8.83,8.83,0,0,1,105.93,414.9Z"/><path class="cls-3" d="M379.59,299.7a122.07,122.07,0,0,1-70.18,110.16,28.49,28.49,0,0,0-10.68,9,51.81,51.81,0,0,1-85.46,0,28.49,28.49,0,0,0-10.68-9A122.07,122.07,0,0,1,132.41,299.7a142.09,142.09,0,0,1,7.68-46.88A185.53,185.53,0,0,1,256,238.34,222.85,222.85,0,0,0,363.88,235,134.57,134.57,0,0,1,379.59,299.7Z"/><path class="cls-4" d="M363.88,235A222.85,222.85,0,0,1,256,238.34a185.53,185.53,0,0,0-115.91,14.48,114,114,0,0,1,66.39-69.56,22.75,22.75,0,0,0,14.21-21.19V113.52a50.41,50.41,0,0,0-26.92-42.9,14.12,14.12,0,0,1,7-26.48H311.26a14.12,14.12,0,0,1,7,26.48,50.41,50.41,0,0,0-26.92,42.9v48.55a22.75,22.75,0,0,0,14.21,21.19A112.22,112.22,0,0,1,363.88,235Z"/><path class="cls-5" d="M256,353.1s53-19.86,53-49.65a30.82,30.82,0,0,0-31.77-29.79A27.23,27.23,0,0,0,256,283.59a27.23,27.23,0,0,0-21.19-9.93A30.82,30.82,0,0,0,203,303.45C203,333.24,256,353.1,256,353.1Z"/><path class="cls-6" d="M235.11,0h41.78a14.41,14.41,0,0,1,14.42,14.41V44.14H220.69V14.41A14.41,14.41,0,0,1,235.11,0Z"/><path class="cls-3" d="M353.1,123.59a8.83,8.83,0,0,1-6.24-15.07l17.66-17.66A8.83,8.83,0,0,1,377,103.34L359.34,121A8.78,8.78,0,0,1,353.1,123.59Z"/><path class="cls-3" d="M158.9,123.59a8.78,8.78,0,0,1-6.24-2.59L135,103.34a8.83,8.83,0,0,1,12.48-12.48l17.66,17.66a8.83,8.83,0,0,1-6.24,15.07Z"/></svg>