<svg id="Слой_1" data-name="Слой 1" xmlns="http://www.w3.org/2000/svg" viewBox="0 0 317.79 512"><defs><style>.cls-1{fill:#df4d60;}.cls-2{fill:#7d6599;}.cls-3{fill:#f3d55b;}.cls-4{fill:#802d40;}.cls-5{fill:#ff5364;}.cls-6{fill:#fff;}</style></defs><g id="Page-1"><g id="_026---Potion" data-name="026---Potion"><path id="Shape" class="cls-1" d="M410.31,238.34a26,26,0,0,0-8-7.76L300.14,167.72a17.69,17.69,0,0,0,17.65-17.65v-8.83a17.7,17.7,0,0,0-17.65-17.65L319.74,32A26.49,26.49,0,0,0,293.87,0H218.13a26.49,26.49,0,0,0-25.87,32l19.6,91.55a17.7,17.7,0,0,0-17.65,17.65v8.83a17.69,17.69,0,0,0,17.65,17.65L109.73,230.58a26.89,26.89,0,0,0-12.63,22.6V405.45a26.58,26.58,0,0,0,1.77,9.45,24.16,24.16,0,0,0,4.24,7.32l68.15,83.34A17.81,17.81,0,0,0,184.94,512H327.06a17.81,17.81,0,0,0,13.68-6.44l68.15-83.34a24.16,24.16,0,0,0,4.24-7.32,26.58,26.58,0,0,0,1.77-9.45V253.18A26,26,0,0,0,410.31,238.34Z" transform="translate(-97.1 0)"/><path id="Shape-2" data-name="Shape" class="cls-2" d="M319.74,32l-19.6,91.55H211.86L192.26,32A26.49,26.49,0,0,1,218.13,0h75.74a26.49,26.49,0,0,1,25.87,32Z" transform="translate(-97.1 0)"/><rect id="Rectangle-path" class="cls-3" x="97.1" y="123.59" width="123.59" height="44.14" rx="17.66"/><path id="Shape-3" data-name="Shape" class="cls-4" d="M413.13,414.9a24.16,24.16,0,0,1-4.24,7.32l-68.15,83.34A17.81,17.81,0,0,1,327.06,512H184.94a17.81,17.81,0,0,1-13.68-6.44l-68.15-83.34a24.16,24.16,0,0,1-4.24-7.32Z" transform="translate(-97.1 0)"/><path id="Shape-4" data-name="Shape" class="cls-5" d="M410.31,238.34H101.69a26,26,0,0,1,8-7.76l102.13-62.86h88.28l102.13,62.86a26,26,0,0,1,8,7.76Z" transform="translate(-97.1 0)"/><path id="Shape-5" data-name="Shape" class="cls-6" d="M150.07,282.48H132.41a8.83,8.83,0,0,1,0-17.65h17.66a8.83,8.83,0,1,1,0,17.65Z" transform="translate(-97.1 0)"/><path id="Shape-6" data-name="Shape" class="cls-6" d="M309,282.48H185.38a8.83,8.83,0,1,1,0-17.65H309a8.83,8.83,0,0,1,0,17.65Z" transform="translate(-97.1 0)"/></g></g></svg>