<svg id="Layer_1" data-name="Layer 1" xmlns="http://www.w3.org/2000/svg" viewBox="0 0 317.79 512"><defs><style>.cls-1{fill:#a2c9ed;}.cls-2{fill:#47e35d;}.cls-3{fill:#7fabda;}.cls-4{fill:#b88353;}.cls-5{fill:#8c5d37;}.cls-6{fill:#26a832;}</style></defs><path class="cls-1" d="M317.79,182.09V105.93H194.21v76.16c0,24-12.17,46-31.58,60.09A158.8,158.8,0,0,0,183.42,512H328.58a158.8,158.8,0,0,0,20.79-269.82c-19.41-14.12-31.58-36.09-31.58-60.09" transform="translate(-97.1)"/><path class="cls-2" d="M264.83,335.34c-39.45-48-120-45.68-158.9.11l-6.56,8.74a158.46,158.46,0,0,0,84,167.81H328.58a158.52,158.52,0,0,0,83-173.4l-5.51-3.15c-45.79,48.82-99.87,45.13-141.24-.11" transform="translate(-97.1)"/><path class="cls-3" d="M336.91,105.93H175.09a7.36,7.36,0,0,1-7.37-7.36V78a7.36,7.36,0,0,1,7.37-7.36H336.91A7.35,7.35,0,0,1,344.27,78V98.57a7.35,7.35,0,0,1-7.36,7.36" transform="translate(-97.1)"/><path class="cls-4" d="M317.79,70.62H194.21V7a7,7,0,0,1,7-7H310.83a7,7,0,0,1,7,7Z" transform="translate(-97.1)"/><path class="cls-5" d="M317.79,42.18a26.3,26.3,0,0,0-42.51,28.44h42.51Z" transform="translate(-97.1)"/><path class="cls-5" d="M211.86,44.14A26.38,26.38,0,0,0,231.47,0h-30.3a7,7,0,0,0-7,7V37.26a26.27,26.27,0,0,0,17.65,6.88" transform="translate(-97.1)"/><path class="cls-6" d="M256,370.76a8.83,8.83,0,1,1-8.83-8.83,8.84,8.84,0,0,1,8.83,8.83" transform="translate(-97.1)"/><path class="cls-6" d="M220.69,467.86a8.83,8.83,0,1,1-8.83-8.83,8.84,8.84,0,0,1,8.83,8.83" transform="translate(-97.1)"/><path class="cls-6" d="M176.92,406.07h-18.4a8.45,8.45,0,0,1-8.45-8.46v-18.4a8.45,8.45,0,0,1,8.45-8.45h18.4a8.45,8.45,0,0,1,8.46,8.45v18.4a8.46,8.46,0,0,1-8.46,8.46" transform="translate(-97.1)"/><path class="cls-6" d="M318.16,459H299.77a8.45,8.45,0,0,1-8.46-8.45v-18.4a8.46,8.46,0,0,1,8.46-8.46h18.39a8.46,8.46,0,0,1,8.46,8.46v18.4a8.45,8.45,0,0,1-8.46,8.45" transform="translate(-97.1)"/></svg>