<svg id="Слой_1" data-name="Слой 1" xmlns="http://www.w3.org/2000/svg" viewBox="0 0 493.68 511"><defs><style>.cls-1{fill:#b0d3f0;}.cls-2{fill:#d75e72;}.cls-3{fill:#90bae1;}.cls-4{fill:#285680;}.cls-5{fill:#ecf0f1;}.cls-6{fill:#cc4b4c;}.cls-7{fill:#f3d55b;}.cls-8{fill:#67b9cc;}.cls-9{fill:#cc66a1;}</style></defs><path class="cls-1" d="M409,511H93.94A69.29,69.29,0,0,1,44.06,393.64L151.38,282.18a17.33,17.33,0,0,0,4.84-12V164.56H346.76V270.17a17.29,17.29,0,0,0,4.85,12L458.92,393.64A69.29,69.29,0,0,1,409,511Z" transform="translate(-8.98 0)"/><path class="cls-2" d="M326.62,303.14,434,416.62a35.09,35.09,0,0,1,6.95,38.24A34.11,34.11,0,0,1,409,476.36H93.94a34.11,34.11,0,0,1-31.88-21.5A35.07,35.07,0,0,1,69,416.64L176.33,303.17Z" transform="translate(-8.98 0)"/><path class="cls-3" d="M147.56,112.59H355.42a17.32,17.32,0,0,1,17.32,17.32v34.65a17.31,17.31,0,0,1-17.32,17.32H147.56a17.32,17.32,0,0,1-17.33-17.32V129.91A17.33,17.33,0,0,1,147.56,112.59Z" transform="translate(-8.98 0)"/><path class="cls-4" d="M239.85,276.8a8.55,8.55,0,0,1-4.84-1.48l-7.17-4.84h0l-7.18-4.85a8.66,8.66,0,0,1,9.7-14.34l19.39-28.72a8.66,8.66,0,0,1,3.19-15.68l12-2.33a8.66,8.66,0,0,1,8.82,13.35L244.71,261a8.66,8.66,0,0,1-4.86,15.83Z" transform="translate(-8.98 0)"/><path class="cls-5" d="M333.71,415.74a30.07,30.07,0,0,1-17.25-5.44,8.66,8.66,0,0,1,9.89-14.22A13,13,0,1,0,323.11,378a8.66,8.66,0,0,1-14.23-9.89,30.32,30.32,0,1,1,30.24,47.15A30.65,30.65,0,0,1,333.71,415.74Z" transform="translate(-8.98 0)"/><path class="cls-5" d="M309,451.27a30.3,30.3,0,0,1-24.83-47.62,8.66,8.66,0,1,1,14.21,9.9,13,13,0,1,0,18.09-3.25,8.66,8.66,0,0,1,9.89-14.22A30.31,30.31,0,0,1,309,451.27Z" transform="translate(-8.98 0)"/><path class="cls-5" d="M190.19,450.37a8.67,8.67,0,0,1-8-5.34,16.7,16.7,0,0,1,2.23-13.37l.58-1.28,2.42-7c3-8.51,6-17.33,9.43-25.91a30.88,30.88,0,0,0,3.67-21.09,13,13,0,1,0-24,10,8.66,8.66,0,0,1-16,6.65,30.32,30.32,0,1,1,56-23.31,44.34,44.34,0,0,1-3.43,33.81c-3,7.6-5.72,15.24-8.31,22.68l22.07-9.19a8.66,8.66,0,0,1,6.67,16l-40,16.66A8.69,8.69,0,0,1,190.19,450.37Z" transform="translate(-8.98 0)"/><path class="cls-6" d="M277.47,145.2a8.68,8.68,0,0,1-8.17-11.54c8.75-24.84,42.8-47.59,64.43-60L295.2,60.13A8.66,8.66,0,0,1,301,43.79l57.19,20.14a8.66,8.66,0,0,1,.87,16c-17.55,8.42-64.92,35.51-73.37,59.5A8.68,8.68,0,0,1,277.47,145.2Z" transform="translate(-8.98 0)"/><path class="cls-7" d="M209.3,90.94a8.57,8.57,0,0,1-3.84-.91l-54.3-26.95a8.65,8.65,0,0,1-1.37-14.67L211.63,1.75a8.66,8.66,0,1,1,10.44,13.83L171.41,53.79l41.75,20.73a8.66,8.66,0,0,1-3.86,16.42Z" transform="translate(-8.98 0)"/><path class="cls-7" d="M186.09,98.75a8.66,8.66,0,0,1-7.75-12.52l19.25-38.78a8.66,8.66,0,1,1,15.52,7.7L193.85,93.94A8.65,8.65,0,0,1,186.09,98.75Z" transform="translate(-8.98 0)"/><path class="cls-7" d="M61,78A26,26,0,1,1,35,52,26,26,0,0,1,61,78Z" transform="translate(-8.98 0)"/><path class="cls-8" d="M502.66,47.63a39,39,0,1,1-39-39A39,39,0,0,1,502.66,47.63Z" transform="translate(-8.98 0)"/><path class="cls-6" d="M494,285.81a26,26,0,1,1-26-26A26,26,0,0,1,494,285.81Z" transform="translate(-8.98 0)"/><path class="cls-9" d="M52.28,233.84a8.66,8.66,0,0,1-8.66-8.65V207.86a8.67,8.67,0,0,1,17.33,0v17.33A8.66,8.66,0,0,1,52.28,233.84Z" transform="translate(-8.98 0)"/><path class="cls-9" d="M52.28,285.81a8.66,8.66,0,0,1-8.66-8.66V259.83a8.67,8.67,0,0,1,17.33,0v17.32A8.67,8.67,0,0,1,52.28,285.81Z" transform="translate(-8.98 0)"/><path class="cls-9" d="M35,251.17H17.64a8.67,8.67,0,0,1,0-17.33H35a8.67,8.67,0,0,1,0,17.33Z" transform="translate(-8.98 0)"/><path class="cls-9" d="M86.93,251.17H69.61a8.67,8.67,0,0,1,0-17.33H86.93a8.67,8.67,0,0,1,0,17.33Z" transform="translate(-8.98 0)"/><path class="cls-9" d="M433.37,164.56a8.66,8.66,0,0,1-8.66-8.66V138.57a8.66,8.66,0,1,1,17.32,0V155.9A8.66,8.66,0,0,1,433.37,164.56Z" transform="translate(-8.98 0)"/><path class="cls-9" d="M433.37,216.52a8.66,8.66,0,0,1-8.66-8.66V190.54a8.66,8.66,0,1,1,17.32,0v17.32A8.65,8.65,0,0,1,433.37,216.52Z" transform="translate(-8.98 0)"/><path class="cls-9" d="M416.05,181.88H398.73a8.66,8.66,0,0,1,0-17.32h17.32a8.66,8.66,0,0,1,0,17.32Z" transform="translate(-8.98 0)"/><path class="cls-9" d="M468,181.88H450.69a8.66,8.66,0,0,1,0-17.32H468a8.66,8.66,0,1,1,0,17.32Z" transform="translate(-8.98 0)"/></svg>