<svg height="512pt" viewBox="0 0 512 512.00033" width="512pt" xmlns="http://www.w3.org/2000/svg"><path d="m477.75 128c-22.550781-38.882812-54.867188-71.199219-93.75-93.75-19.023438-11.027344-39.402344-19.535156-60.625-25.300781-44.125-11.933594-90.625-11.933594-134.75 0-21.222656 5.765625-41.601562 14.273437-60.625 25.300781-38.882812 22.550781-71.199219 54.867188-93.75 93.75-11.027344 19.023438-19.535156 39.402344-25.300781 60.625-11.933594 44.125-11.933594 90.625 0 134.75 5.765625 21.222656 14.273437 41.601562 25.300781 60.625 22.550781 38.882812 54.867188 71.199219 93.75 93.75 19.023438 11.027344 39.402344 19.535156 60.625 25.300781 44.125 11.933594 90.625 11.933594 134.75 0 21.222656-5.765625 41.601562-14.273437 60.625-25.300781 38.882812-22.550781 71.199219-54.867188 93.75-93.75 11.027344-19.023438 19.535156-39.402344 25.300781-60.625 11.933594-44.125 11.933594-90.625 0-134.75-5.765625-21.222656-14.273437-41.601562-25.300781-60.625zm0 0" fill="#f29c1f"/><g fill="#f0c419"><path d="m87.921875 158.984375c-1.277344 2.074219-2.496094 4.191406-3.652344 6.34375-1.15625 2.15625-2.261719 4.335937-3.320312 6.546875-12.632813 26.242188-19.183594 55-19.15625 84.125h-61.792969c-.0195312-22.757812 2.992188-45.414062 8.949219-67.375 5.765625-21.222656 14.273437-41.601562 25.300781-60.625h.089844l26.746094 15.449219 26.75 15.449219zm0 0"/><path d="m477.75 128h-.089844l-26.746094 15.449219-26.75 15.449219-.085937.085937c-16.320313-28.316406-39.515625-52.058594-67.441406-69.03125-.621094-.351563-1.214844-.707031-1.8125-1.046875-.59375-.34375-1.191407-.675781-1.808594-.984375l.042969-.042969.046875-.042968 15.445312-26.75 15.449219-26.746094v-.089844c38.882812 22.550781 71.199219 54.867188 93.75 93.75zm0 0"/><path d="m512 256c.019531 22.757812-2.992188 45.414062-8.949219 67.375-5.765625 21.222656-14.273437 41.601562-25.300781 60.625h-.089844l-26.746094-15.449219-26.75-15.445312-.042968-.046875-.042969-.042969c8.429687-14.40625 14.925781-29.859375 19.320313-45.957031 4.535156-16.640625 6.824218-33.8125 6.808593-51.058594zm0 0"/><path d="m384 477.660156v.089844c-19.023438 11.027344-39.402344 19.535156-60.625 25.300781-21.960938 5.957031-44.617188 8.96875-67.375 8.949219v-61.792969c17.246094.015625 34.417969-2.273437 51.058594-6.808593 16.097656-4.398438 31.550781-10.894532 45.957031-19.320313l.042969.042969.046875.042968 15.445312 26.75zm0 0"/><path d="m158.984375 424.078125-.085937.085937-15.449219 26.75-15.449219 26.746094v.089844c-38.882812-22.550781-71.199219-54.867188-93.75-93.75h.089844l26.746094-15.449219 26.75-15.445312.042968-.046875.042969-.042969c17.007813 29.539063 41.523437 54.054687 71.0625 71.0625zm0 0"/><path d="m256 0v61.792969c-17.246094-.015625-34.417969 2.273437-51.058594 6.808593-16.097656 4.398438-31.550781 10.894532-45.957031 19.320313l-.085937-.085937-15.449219-26.75-15.449219-26.746094v-.089844c19.023438-11.027344 39.402344-19.535156 60.625-25.300781 21.960938-5.957031 44.617188-8.9687502 67.375-8.949219zm0 0"/></g><path d="m467.863281 256c.015625 18.816406-2.480469 37.550781-7.429687 55.703125-4.792969 17.566406-11.882813 34.421875-21.078125 50.140625-18.550781 32.226562-45.292969 58.96875-77.519531 77.519531-15.71875 9.195313-32.574219 16.285157-50.140626 21.078125-36.472656 9.90625-74.925781 9.90625-111.394531 0-17.566406-4.792968-34.425781-11.882812-50.140625-21.078125-96.046875-55.273437-133.175781-175.285156-85.125-275.136719 1.15625-2.410156 2.363282-4.789062 3.621094-7.140624 1.257812-2.351563 2.585938-4.65625 3.984375-6.921876 18.550781-32.226562 45.296875-58.96875 77.523437-77.523437 15.71875-9.191406 32.578126-16.277344 50.140626-21.074219 54.492187-14.90625 112.6875-7.3125 161.53125 21.074219.671874.339844 1.324218.699219 1.972656 1.074219.648437.371094 1.300781.757812 1.976562 1.148437 30.464844 18.515625 55.769532 44.417969 73.570313 75.304688 9.195312 15.71875 16.285156 32.574219 21.078125 50.140625 4.949218 18.152344 7.445312 36.878906 7.429687 55.691406zm0 0" fill="#e57e25"/><path d="m432.550781 256c.015625 15.679688-2.066406 31.289062-6.1875 46.414062-4 14.636719-9.90625 28.6875-17.566406 41.78125-15.460937 26.855469-37.746094 49.144532-64.601563 64.601563-13.097656 7.664063-27.144531 13.570313-41.78125 17.566406-30.394531 8.253907-62.4375 8.253907-92.832031 0-14.636719-3.996093-28.683593-9.902343-41.777343-17.566406-80.035157-46.058594-110.980469-146.066406-70.945313-229.277344.964844-2.003906 1.972656-3.988281 3.023437-5.945312 1.046876-1.960938 2.15625-3.882813 3.316407-5.769531 15.460937-26.855469 37.75-49.144532 64.605469-64.601563 13.09375-7.664063 27.140624-13.570313 41.777343-17.566406 45.414063-12.421875 93.910157-6.09375 134.613281 17.566406.558594.28125 1.101563.582031 1.644532.890625.542968.3125 1.082031.632812 1.644531.953125 25.390625 15.433594 46.476563 37.015625 61.3125 62.757813 7.660156 13.097656 13.566406 27.144531 17.566406 41.78125 4.121094 15.125 6.203125 30.734374 6.1875 46.414062zm0 0" fill="#f0c419"/><path d="m386.824219 209.566406c.648437 16.539063-5.769531 32.574219-17.644531 44.105469-13.210938 11.476563-29.242188 19.226563-46.441407 22.457031-3.898437.890625-7.386719 3.066406-9.898437 6.175782-2.507813 3.097656-3.875 6.964843-3.875 10.949218v24.539063c-.027344 9.738281-7.914063 17.625-17.652344 17.65625h-70.621094c-9.742187-.03125-17.628906-7.917969-17.65625-17.65625v-24.539063c0-3.984375-1.367187-7.851562-3.875-10.949218-2.511718-3.109376-5.996094-5.285157-9.894531-6.175782-17.203125-3.230468-33.234375-10.980468-46.445313-22.457031-11.875-11.53125-18.289062-27.566406-17.644531-44.105469.75-29.039062 14.886719-56.101562 38.300781-73.300781 26.585938-20.160156 59.160157-30.839844 92.523438-30.335937 33.363281-.503907 65.9375 10.175781 92.523438 30.335937 23.414062 17.199219 37.554687 44.261719 38.300781 73.300781zm0 0" fill="#f5efca"/><path d="m256 273.65625h12.199219c3.058593 0 5.902343-1.585938 7.511719-4.1875 1.605468-2.601562 1.753906-5.851562.382812-8.589844l-6.097656-12.199218-6.101563-12.199219c-1.496093-2.988281-4.550781-4.878907-7.894531-4.878907s-6.398438 1.890626-7.894531 4.878907l-6.101563 12.199219-6.097656 12.199218c-1.371094 2.738282-1.222656 5.988282.386719 8.589844 1.605469 2.601562 4.449219 4.1875 7.507812 4.1875zm0 0" fill="#805333"/><path d="m247.171875 335.449219v-17.65625c0-4.875-3.953125-8.828125-8.828125-8.828125s-8.828125 3.953125-8.828125 8.828125v17.65625zm0 0" fill="#cbb292"/><path d="m282.484375 317.792969v17.65625h-17.65625v-17.65625c0-4.875 3.953125-8.828125 8.828125-8.828125s8.828125 3.953125 8.828125 8.828125zm0 0" fill="#cbb292"/><path d="m282.484375 414.898438h-44.140625c-14.625 0-26.480469-11.859376-26.480469-26.484376v-17.65625h97.101563v17.65625c0 14.625-11.855469 26.484376-26.480469 26.484376zm0 0" fill="#f5efca"/><path d="m235.167969 191.109375c1.25 1.058594 2.1875 2.4375 2.71875 3.988281.535156 1.539063.605469 3.199219.207031 4.78125-1.679688 6.089844-5.5 11.367188-10.761719 14.867188-5.796875 3.929687-12.652343 6.003906-19.652343 5.945312-8.023438.09375-15.820313-2.65625-22.011719-7.757812-5.660157-4.585938-9-11.441406-9.117188-18.726563 0-12.378906 3.046875-18.96875 8.042969-22.480469 6.050781-3.25 12.925781-4.636718 19.761719-3.996093 2.136719-.007813 4.207031.746093 5.835937 2.132812l12.484375 10.621094zm0 0" fill="#805333"/><path d="m276.832031 191.109375c-1.25 1.058594-2.1875 2.4375-2.71875 3.988281-.535156 1.539063-.605469 3.199219-.207031 4.78125 1.683594 6.089844 5.503906 11.367188 10.761719 14.867188 5.796875 3.929687 12.652343 6.003906 19.652343 5.945312 8.023438.09375 15.820313-2.65625 22.011719-7.757812 5.660157-4.585938 9-11.441406 9.117188-18.726563 0-12.378906-3.042969-18.96875-8.042969-22.480469-6.050781-3.25-12.925781-4.636718-19.761719-3.996093-2.136719-.007813-4.207031.746093-5.835937 2.132812l-12.484375 10.621094zm0 0" fill="#805333"/></svg>