<?xml version="1.0" encoding="iso-8859-1"?>
<!-- Generator: Adobe Illustrator 16.0.0, SVG Export Plug-In . SVG Version: 6.00 Build 0)  -->
<!DOCTYPE svg PUBLIC "-//W3C//DTD SVG 1.1//EN" "http://www.w3.org/Graphics/SVG/1.1/DTD/svg11.dtd">
<svg version="1.1" id="Capa_1" xmlns="http://www.w3.org/2000/svg" xmlns:xlink="http://www.w3.org/1999/xlink" x="0px" y="0px"
	 width="938.543px" height="938.543px" viewBox="0 0 938.543 938.543" style="enable-background:new 0 0 938.543 938.543;"
	 xml:space="preserve">
<g>
	<path d="M313.176,635.217L141.641,801.722v71.558h655.262v-71.558L625.368,635.217H313.176z M758.903,835.279H179.641v-17.484
		l148.945-144.578h281.37l148.945,144.577v17.485H758.903z"/>
	<path d="M73.835,938.543h790.873V767.438l-269.32-258.153c-0.557-0.521-0.887-1.286-0.887-2.078l0.096-219.991l34.066,0.083
		l0.084-144.493h-128.01c-5.582-31.908-33.468-56.244-66.95-56.244s-61.369,24.336-66.949,56.244h-56.863l0.066,144.674
		l34.002-0.119v219.846c0,0.792-0.329,1.557-0.907,2.098L73.835,767.438V938.543z M433.788,119.562
		c15.174,0,28.115,9.712,32.952,23.244h-65.903C405.671,129.275,418.614,119.562,433.788,119.562z M108.975,782.785l270.208-259.358
		V257.589l-34.373,0.057l0.15-79.701h243.656l-0.068,78.872l-29.01,0.027c-0.027,7.513-0.057,31.663-0.086,72.045l-0.002,2.621
		h-94.3v35.139h94.279l-0.025,45.632h-94.254v35.139h94.239l-0.018,45.632h-94.221v35.14h99.18l265.238,254.594v120.619H108.975
		V782.785z"/>
	<path d="M327.263,67.985C327.263,30.498,296.765,0,259.278,0c-37.486,0-67.984,30.498-67.984,67.985s30.498,67.985,67.984,67.985
		C296.765,135.97,327.263,105.472,327.263,67.985z M224.293,67.985c0-19.291,15.694-34.985,34.984-34.985
		c19.291,0,34.985,15.694,34.985,34.985s-15.694,34.985-34.985,34.985C239.988,102.97,224.293,87.276,224.293,67.985z"/>
</g>
<g>
</g>
<g>
</g>
<g>
</g>
<g>
</g>
<g>
</g>
<g>
</g>
<g>
</g>
<g>
</g>
<g>
</g>
<g>
</g>
<g>
</g>
<g>
</g>
<g>
</g>
<g>
</g>
<g>
</g>
</svg>
