<svg id="Capa_1" data-name="Capa 1" xmlns="http://www.w3.org/2000/svg" viewBox="0 0 475.08 405.98"><defs><style>.cls-1{fill:#f5cb5c;}</style></defs><path class="cls-1" d="M201,64a17.56,17.56,0,0,0-12.85,5.43L93.08,164.45H18.28a17.53,17.53,0,0,0-12.85,5.43A17.54,17.54,0,0,0,0,182.73V292.36A17.54,17.54,0,0,0,5.43,305.2a17.56,17.56,0,0,0,12.85,5.43H93.07l95.08,95.08a18.27,18.27,0,0,0,31.12-12.85V82.23A18.53,18.53,0,0,0,201,64Z" transform="translate(0 -34.55)"/><path class="cls-1" d="M316.77,277.94a73.59,73.59,0,0,0,0-80.95q-12.13-18.86-32.12-26.56a16.07,16.07,0,0,0-7.14-1.42,17.83,17.83,0,0,0-12.85,5.28,17.45,17.45,0,0,0-5.43,13,15.36,15.36,0,0,0,3.44,10.14,33.11,33.11,0,0,0,8.28,7.13q4.85,3,9.71,6.57a28.72,28.72,0,0,1,8.27,10.14q3.42,6.57,3.43,16.27t-3.43,16.28A28.82,28.82,0,0,1,280.66,264q-4.86,3.57-9.71,6.57a33.11,33.11,0,0,0-8.28,7.13,15.36,15.36,0,0,0-3.44,10.14,17.45,17.45,0,0,0,5.43,13,17.82,17.82,0,0,0,12.85,5.29,16,16,0,0,0,7.14-1.43A67.55,67.55,0,0,0,316.77,277.94Z" transform="translate(0 -34.55)"/><path class="cls-1" d="M377.73,318.19a146.17,146.17,0,0,0,0-161.32q-24.27-37-64.24-53.81a20.57,20.57,0,0,0-7.42-1.43,18.55,18.55,0,0,0-18.28,18.28q0,11.13,11.14,16.84,16,8.28,21.7,12.56a109.2,109.2,0,0,1,0,176.45q-5.72,4.28-21.7,12.56Q287.8,344,287.79,355.17A17.54,17.54,0,0,0,293.22,368a17.87,17.87,0,0,0,13.13,5.44,20.12,20.12,0,0,0,7.14-1.43Q353.45,355.16,377.73,318.19Z" transform="translate(0 -34.55)"/><path class="cls-1" d="M438.82,116.92Q402.56,62,342.32,36a20.57,20.57,0,0,0-7.42-1.43A17.54,17.54,0,0,0,322.06,40a17.55,17.55,0,0,0-5.44,12.85q0,10.28,11.14,16.84a65.79,65.79,0,0,0,6.42,3,64.35,64.35,0,0,1,6.43,3A217.53,217.53,0,0,1,364,90.22,182.08,182.08,0,0,1,418.85,155a182.72,182.72,0,0,1,0,165A182,182,0,0,1,364,384.86a217.53,217.53,0,0,1-23.42,14.56,64.35,64.35,0,0,1-6.43,3,65.79,65.79,0,0,0-6.42,3q-11.13,6.57-11.14,16.85a18.56,18.56,0,0,0,18.28,18.27,20.36,20.36,0,0,0,7.42-1.43q60.24-26,96.5-80.94t36.26-120.62Q475.08,171.87,438.82,116.92Z" transform="translate(0 -34.55)"/></svg>